<?xml version="1.0" encoding="utf-8" standalone="no"?>
<!DOCTYPE svg PUBLIC "-//W3C//DTD SVG 1.1//EN"
  "http://www.w3.org/Graphics/SVG/1.1/DTD/svg11.dtd">
<svg xmlns:xlink="http://www.w3.org/1999/xlink" width="1052.64pt" height="581.04pt" viewBox="0 0 1052.64 581.04" xmlns="http://www.w3.org/2000/svg" version="1.1">
 <metadata>
  <rdf:RDF xmlns:dc="http://purl.org/dc/elements/1.1/" xmlns:cc="http://creativecommons.org/ns#" xmlns:rdf="http://www.w3.org/1999/02/22-rdf-syntax-ns#">
   <cc:Work>
    <dc:type rdf:resource="http://purl.org/dc/dcmitype/StillImage"/>
    <dc:date>2022-12-31T00:28:15.990097</dc:date>
    <dc:format>image/svg+xml</dc:format>
    <dc:creator>
     <cc:Agent>
      <dc:title>Matplotlib v3.6.2, https://matplotlib.org/</dc:title>
     </cc:Agent>
    </dc:creator>
   </cc:Work>
  </rdf:RDF>
 </metadata>
 <defs>
  <style type="text/css">*{stroke-linejoin: round; stroke-linecap: butt}</style>
 </defs>
 <g id="figure_1">
  <g id="patch_1">
   <path d="M 0 581.04 
L 1052.64 581.04 
L 1052.64 0 
L 0 0 
z
" style="fill: #ffffff"/>
  </g>
  <g id="axes_1">
   <g id="patch_2">
    <path d="M 51.176 253.384 
L 1041.84 253.384 
L 1041.84 26.016 
L 51.176 26.016 
z
" style="fill: #ffffff"/>
   </g>
   <g id="PathCollection_1">
    <defs>
     <path id="mb5b6804c58" d="M 0 3 
C 0.795609 3 1.55874 2.683901 2.12132 2.12132 
C 2.683901 1.55874 3 0.795609 3 0 
C 3 -0.795609 2.683901 -1.55874 2.12132 -2.12132 
C 1.55874 -2.683901 0.795609 -3 0 -3 
C -0.795609 -3 -1.55874 -2.683901 -2.12132 -2.12132 
C -2.683901 -1.55874 -3 -0.795609 -3 0 
C -3 0.795609 -2.683901 1.55874 -2.12132 2.12132 
C -1.55874 2.683901 -0.795609 3 0 3 
z
" style="stroke: #1f77b4"/>
    </defs>
    <g clip-path="url(#pd908f1479f)">
     <use xlink:href="#mb5b6804c58" x="996.809818" y="243.049091" style="fill: #1f77b4; stroke: #1f77b4"/>
     <use xlink:href="#mb5b6804c58" x="614.339566" y="234.062213" style="fill: #1f77b4; stroke: #1f77b4"/>
     <use xlink:href="#mb5b6804c58" x="409.426932" y="225.075336" style="fill: #1f77b4; stroke: #1f77b4"/>
     <use xlink:href="#mb5b6804c58" x="294.319418" y="216.088458" style="fill: #1f77b4; stroke: #1f77b4"/>
     <use xlink:href="#mb5b6804c58" x="209.979471" y="207.101581" style="fill: #1f77b4; stroke: #1f77b4"/>
     <use xlink:href="#mb5b6804c58" x="178.460979" y="198.114704" style="fill: #1f77b4; stroke: #1f77b4"/>
     <use xlink:href="#mb5b6804c58" x="145.874035" y="189.127826" style="fill: #1f77b4; stroke: #1f77b4"/>
     <use xlink:href="#mb5b6804c58" x="132.935232" y="180.140949" style="fill: #1f77b4; stroke: #1f77b4"/>
     <use xlink:href="#mb5b6804c58" x="122.561995" y="171.154071" style="fill: #1f77b4; stroke: #1f77b4"/>
     <use xlink:href="#mb5b6804c58" x="115.502064" y="162.167194" style="fill: #1f77b4; stroke: #1f77b4"/>
     <use xlink:href="#mb5b6804c58" x="109.802841" y="153.180316" style="fill: #1f77b4; stroke: #1f77b4"/>
     <use xlink:href="#mb5b6804c58" x="106.028084" y="144.193439" style="fill: #1f77b4; stroke: #1f77b4"/>
     <use xlink:href="#mb5b6804c58" x="103.709331" y="135.206561" style="fill: #1f77b4; stroke: #1f77b4"/>
     <use xlink:href="#mb5b6804c58" x="101.627902" y="126.219684" style="fill: #1f77b4; stroke: #1f77b4"/>
     <use xlink:href="#mb5b6804c58" x="100.304417" y="117.232806" style="fill: #1f77b4; stroke: #1f77b4"/>
     <use xlink:href="#mb5b6804c58" x="99.282592" y="108.245929" style="fill: #1f77b4; stroke: #1f77b4"/>
     <use xlink:href="#mb5b6804c58" x="98.532501" y="99.259051" style="fill: #1f77b4; stroke: #1f77b4"/>
     <use xlink:href="#mb5b6804c58" x="97.966772" y="90.272174" style="fill: #1f77b4; stroke: #1f77b4"/>
     <use xlink:href="#mb5b6804c58" x="97.484257" y="81.285296" style="fill: #1f77b4; stroke: #1f77b4"/>
     <use xlink:href="#mb5b6804c58" x="97.041939" y="72.298419" style="fill: #1f77b4; stroke: #1f77b4"/>
     <use xlink:href="#mb5b6804c58" x="96.746818" y="63.311542" style="fill: #1f77b4; stroke: #1f77b4"/>
     <use xlink:href="#mb5b6804c58" x="96.546686" y="54.324664" style="fill: #1f77b4; stroke: #1f77b4"/>
     <use xlink:href="#mb5b6804c58" x="96.32194" y="45.337787" style="fill: #1f77b4; stroke: #1f77b4"/>
     <use xlink:href="#mb5b6804c58" x="96.206182" y="36.350909" style="fill: #1f77b4; stroke: #1f77b4"/>
    </g>
   </g>
   <g id="matplotlib.axis_1">
    <g id="xtick_1">
     <g id="line2d_1">
      <defs>
       <path id="mb505506765" d="M 0 0 
L 0 3.5 
" style="stroke: #000000; stroke-width: 0.8"/>
      </defs>
      <g>
       <use xlink:href="#mb505506765" x="95.416452" y="253.384" style="stroke: #000000; stroke-width: 0.8"/>
      </g>
     </g>
     <g id="text_1">
      <!-- 0 -->
      <g transform="translate(92.235202 267.982438) scale(0.1 -0.1)">
       <defs>
        <path id="DejaVuSans-30" d="M 2034 4250 
Q 1547 4250 1301 3770 
Q 1056 3291 1056 2328 
Q 1056 1369 1301 889 
Q 1547 409 2034 409 
Q 2525 409 2770 889 
Q 3016 1369 3016 2328 
Q 3016 3291 2770 3770 
Q 2525 4250 2034 4250 
z
M 2034 4750 
Q 2819 4750 3233 4129 
Q 3647 3509 3647 2328 
Q 3647 1150 3233 529 
Q 2819 -91 2034 -91 
Q 1250 -91 836 529 
Q 422 1150 422 2328 
Q 422 3509 836 4129 
Q 1250 4750 2034 4750 
z
" transform="scale(0.015625)"/>
       </defs>
       <use xlink:href="#DejaVuSans-30"/>
      </g>
     </g>
    </g>
    <g id="xtick_2">
     <g id="line2d_2">
      <g>
       <use xlink:href="#mb505506765" x="243.280743" y="253.384" style="stroke: #000000; stroke-width: 0.8"/>
      </g>
     </g>
     <g id="text_2">
      <!-- 20000 -->
      <g transform="translate(227.374493 267.982438) scale(0.1 -0.1)">
       <defs>
        <path id="DejaVuSans-32" d="M 1228 531 
L 3431 531 
L 3431 0 
L 469 0 
L 469 531 
Q 828 903 1448 1529 
Q 2069 2156 2228 2338 
Q 2531 2678 2651 2914 
Q 2772 3150 2772 3378 
Q 2772 3750 2511 3984 
Q 2250 4219 1831 4219 
Q 1534 4219 1204 4116 
Q 875 4013 500 3803 
L 500 4441 
Q 881 4594 1212 4672 
Q 1544 4750 1819 4750 
Q 2544 4750 2975 4387 
Q 3406 4025 3406 3419 
Q 3406 3131 3298 2873 
Q 3191 2616 2906 2266 
Q 2828 2175 2409 1742 
Q 1991 1309 1228 531 
z
" transform="scale(0.015625)"/>
       </defs>
       <use xlink:href="#DejaVuSans-32"/>
       <use xlink:href="#DejaVuSans-30" x="63.623047"/>
       <use xlink:href="#DejaVuSans-30" x="127.246094"/>
       <use xlink:href="#DejaVuSans-30" x="190.869141"/>
       <use xlink:href="#DejaVuSans-30" x="254.492188"/>
      </g>
     </g>
    </g>
    <g id="xtick_3">
     <g id="line2d_3">
      <g>
       <use xlink:href="#mb505506765" x="391.145035" y="253.384" style="stroke: #000000; stroke-width: 0.8"/>
      </g>
     </g>
     <g id="text_3">
      <!-- 40000 -->
      <g transform="translate(375.238785 267.982438) scale(0.1 -0.1)">
       <defs>
        <path id="DejaVuSans-34" d="M 2419 4116 
L 825 1625 
L 2419 1625 
L 2419 4116 
z
M 2253 4666 
L 3047 4666 
L 3047 1625 
L 3713 1625 
L 3713 1100 
L 3047 1100 
L 3047 0 
L 2419 0 
L 2419 1100 
L 313 1100 
L 313 1709 
L 2253 4666 
z
" transform="scale(0.015625)"/>
       </defs>
       <use xlink:href="#DejaVuSans-34"/>
       <use xlink:href="#DejaVuSans-30" x="63.623047"/>
       <use xlink:href="#DejaVuSans-30" x="127.246094"/>
       <use xlink:href="#DejaVuSans-30" x="190.869141"/>
       <use xlink:href="#DejaVuSans-30" x="254.492188"/>
      </g>
     </g>
    </g>
    <g id="xtick_4">
     <g id="line2d_4">
      <g>
       <use xlink:href="#mb505506765" x="539.009326" y="253.384" style="stroke: #000000; stroke-width: 0.8"/>
      </g>
     </g>
     <g id="text_4">
      <!-- 60000 -->
      <g transform="translate(523.103076 267.982438) scale(0.1 -0.1)">
       <defs>
        <path id="DejaVuSans-36" d="M 2113 2584 
Q 1688 2584 1439 2293 
Q 1191 2003 1191 1497 
Q 1191 994 1439 701 
Q 1688 409 2113 409 
Q 2538 409 2786 701 
Q 3034 994 3034 1497 
Q 3034 2003 2786 2293 
Q 2538 2584 2113 2584 
z
M 3366 4563 
L 3366 3988 
Q 3128 4100 2886 4159 
Q 2644 4219 2406 4219 
Q 1781 4219 1451 3797 
Q 1122 3375 1075 2522 
Q 1259 2794 1537 2939 
Q 1816 3084 2150 3084 
Q 2853 3084 3261 2657 
Q 3669 2231 3669 1497 
Q 3669 778 3244 343 
Q 2819 -91 2113 -91 
Q 1303 -91 875 529 
Q 447 1150 447 2328 
Q 447 3434 972 4092 
Q 1497 4750 2381 4750 
Q 2619 4750 2861 4703 
Q 3103 4656 3366 4563 
z
" transform="scale(0.015625)"/>
       </defs>
       <use xlink:href="#DejaVuSans-36"/>
       <use xlink:href="#DejaVuSans-30" x="63.623047"/>
       <use xlink:href="#DejaVuSans-30" x="127.246094"/>
       <use xlink:href="#DejaVuSans-30" x="190.869141"/>
       <use xlink:href="#DejaVuSans-30" x="254.492188"/>
      </g>
     </g>
    </g>
    <g id="xtick_5">
     <g id="line2d_5">
      <g>
       <use xlink:href="#mb505506765" x="686.873617" y="253.384" style="stroke: #000000; stroke-width: 0.8"/>
      </g>
     </g>
     <g id="text_5">
      <!-- 80000 -->
      <g transform="translate(670.967367 267.982438) scale(0.1 -0.1)">
       <defs>
        <path id="DejaVuSans-38" d="M 2034 2216 
Q 1584 2216 1326 1975 
Q 1069 1734 1069 1313 
Q 1069 891 1326 650 
Q 1584 409 2034 409 
Q 2484 409 2743 651 
Q 3003 894 3003 1313 
Q 3003 1734 2745 1975 
Q 2488 2216 2034 2216 
z
M 1403 2484 
Q 997 2584 770 2862 
Q 544 3141 544 3541 
Q 544 4100 942 4425 
Q 1341 4750 2034 4750 
Q 2731 4750 3128 4425 
Q 3525 4100 3525 3541 
Q 3525 3141 3298 2862 
Q 3072 2584 2669 2484 
Q 3125 2378 3379 2068 
Q 3634 1759 3634 1313 
Q 3634 634 3220 271 
Q 2806 -91 2034 -91 
Q 1263 -91 848 271 
Q 434 634 434 1313 
Q 434 1759 690 2068 
Q 947 2378 1403 2484 
z
M 1172 3481 
Q 1172 3119 1398 2916 
Q 1625 2713 2034 2713 
Q 2441 2713 2670 2916 
Q 2900 3119 2900 3481 
Q 2900 3844 2670 4047 
Q 2441 4250 2034 4250 
Q 1625 4250 1398 4047 
Q 1172 3844 1172 3481 
z
" transform="scale(0.015625)"/>
       </defs>
       <use xlink:href="#DejaVuSans-38"/>
       <use xlink:href="#DejaVuSans-30" x="63.623047"/>
       <use xlink:href="#DejaVuSans-30" x="127.246094"/>
       <use xlink:href="#DejaVuSans-30" x="190.869141"/>
       <use xlink:href="#DejaVuSans-30" x="254.492188"/>
      </g>
     </g>
    </g>
    <g id="xtick_6">
     <g id="line2d_6">
      <g>
       <use xlink:href="#mb505506765" x="834.737909" y="253.384" style="stroke: #000000; stroke-width: 0.8"/>
      </g>
     </g>
     <g id="text_6">
      <!-- 100000 -->
      <g transform="translate(815.650409 267.982438) scale(0.1 -0.1)">
       <defs>
        <path id="DejaVuSans-31" d="M 794 531 
L 1825 531 
L 1825 4091 
L 703 3866 
L 703 4441 
L 1819 4666 
L 2450 4666 
L 2450 531 
L 3481 531 
L 3481 0 
L 794 0 
L 794 531 
z
" transform="scale(0.015625)"/>
       </defs>
       <use xlink:href="#DejaVuSans-31"/>
       <use xlink:href="#DejaVuSans-30" x="63.623047"/>
       <use xlink:href="#DejaVuSans-30" x="127.246094"/>
       <use xlink:href="#DejaVuSans-30" x="190.869141"/>
       <use xlink:href="#DejaVuSans-30" x="254.492188"/>
       <use xlink:href="#DejaVuSans-30" x="318.115234"/>
      </g>
     </g>
    </g>
    <g id="xtick_7">
     <g id="line2d_7">
      <g>
       <use xlink:href="#mb505506765" x="982.6022" y="253.384" style="stroke: #000000; stroke-width: 0.8"/>
      </g>
     </g>
     <g id="text_7">
      <!-- 120000 -->
      <g transform="translate(963.5147 267.982438) scale(0.1 -0.1)">
       <use xlink:href="#DejaVuSans-31"/>
       <use xlink:href="#DejaVuSans-32" x="63.623047"/>
       <use xlink:href="#DejaVuSans-30" x="127.246094"/>
       <use xlink:href="#DejaVuSans-30" x="190.869141"/>
       <use xlink:href="#DejaVuSans-30" x="254.492188"/>
       <use xlink:href="#DejaVuSans-30" x="318.115234"/>
      </g>
     </g>
    </g>
    <g id="text_8">
     <!-- Resistance (ohms) -->
     <g transform="translate(500.371281 281.660563) scale(0.1 -0.1)">
      <defs>
       <path id="DejaVuSans-52" d="M 2841 2188 
Q 3044 2119 3236 1894 
Q 3428 1669 3622 1275 
L 4263 0 
L 3584 0 
L 2988 1197 
Q 2756 1666 2539 1819 
Q 2322 1972 1947 1972 
L 1259 1972 
L 1259 0 
L 628 0 
L 628 4666 
L 2053 4666 
Q 2853 4666 3247 4331 
Q 3641 3997 3641 3322 
Q 3641 2881 3436 2590 
Q 3231 2300 2841 2188 
z
M 1259 4147 
L 1259 2491 
L 2053 2491 
Q 2509 2491 2742 2702 
Q 2975 2913 2975 3322 
Q 2975 3731 2742 3939 
Q 2509 4147 2053 4147 
L 1259 4147 
z
" transform="scale(0.015625)"/>
       <path id="DejaVuSans-65" d="M 3597 1894 
L 3597 1613 
L 953 1613 
Q 991 1019 1311 708 
Q 1631 397 2203 397 
Q 2534 397 2845 478 
Q 3156 559 3463 722 
L 3463 178 
Q 3153 47 2828 -22 
Q 2503 -91 2169 -91 
Q 1331 -91 842 396 
Q 353 884 353 1716 
Q 353 2575 817 3079 
Q 1281 3584 2069 3584 
Q 2775 3584 3186 3129 
Q 3597 2675 3597 1894 
z
M 3022 2063 
Q 3016 2534 2758 2815 
Q 2500 3097 2075 3097 
Q 1594 3097 1305 2825 
Q 1016 2553 972 2059 
L 3022 2063 
z
" transform="scale(0.015625)"/>
       <path id="DejaVuSans-73" d="M 2834 3397 
L 2834 2853 
Q 2591 2978 2328 3040 
Q 2066 3103 1784 3103 
Q 1356 3103 1142 2972 
Q 928 2841 928 2578 
Q 928 2378 1081 2264 
Q 1234 2150 1697 2047 
L 1894 2003 
Q 2506 1872 2764 1633 
Q 3022 1394 3022 966 
Q 3022 478 2636 193 
Q 2250 -91 1575 -91 
Q 1294 -91 989 -36 
Q 684 19 347 128 
L 347 722 
Q 666 556 975 473 
Q 1284 391 1588 391 
Q 1994 391 2212 530 
Q 2431 669 2431 922 
Q 2431 1156 2273 1281 
Q 2116 1406 1581 1522 
L 1381 1569 
Q 847 1681 609 1914 
Q 372 2147 372 2553 
Q 372 3047 722 3315 
Q 1072 3584 1716 3584 
Q 2034 3584 2315 3537 
Q 2597 3491 2834 3397 
z
" transform="scale(0.015625)"/>
       <path id="DejaVuSans-69" d="M 603 3500 
L 1178 3500 
L 1178 0 
L 603 0 
L 603 3500 
z
M 603 4863 
L 1178 4863 
L 1178 4134 
L 603 4134 
L 603 4863 
z
" transform="scale(0.015625)"/>
       <path id="DejaVuSans-74" d="M 1172 4494 
L 1172 3500 
L 2356 3500 
L 2356 3053 
L 1172 3053 
L 1172 1153 
Q 1172 725 1289 603 
Q 1406 481 1766 481 
L 2356 481 
L 2356 0 
L 1766 0 
Q 1100 0 847 248 
Q 594 497 594 1153 
L 594 3053 
L 172 3053 
L 172 3500 
L 594 3500 
L 594 4494 
L 1172 4494 
z
" transform="scale(0.015625)"/>
       <path id="DejaVuSans-61" d="M 2194 1759 
Q 1497 1759 1228 1600 
Q 959 1441 959 1056 
Q 959 750 1161 570 
Q 1363 391 1709 391 
Q 2188 391 2477 730 
Q 2766 1069 2766 1631 
L 2766 1759 
L 2194 1759 
z
M 3341 1997 
L 3341 0 
L 2766 0 
L 2766 531 
Q 2569 213 2275 61 
Q 1981 -91 1556 -91 
Q 1019 -91 701 211 
Q 384 513 384 1019 
Q 384 1609 779 1909 
Q 1175 2209 1959 2209 
L 2766 2209 
L 2766 2266 
Q 2766 2663 2505 2880 
Q 2244 3097 1772 3097 
Q 1472 3097 1187 3025 
Q 903 2953 641 2809 
L 641 3341 
Q 956 3463 1253 3523 
Q 1550 3584 1831 3584 
Q 2591 3584 2966 3190 
Q 3341 2797 3341 1997 
z
" transform="scale(0.015625)"/>
       <path id="DejaVuSans-6e" d="M 3513 2113 
L 3513 0 
L 2938 0 
L 2938 2094 
Q 2938 2591 2744 2837 
Q 2550 3084 2163 3084 
Q 1697 3084 1428 2787 
Q 1159 2491 1159 1978 
L 1159 0 
L 581 0 
L 581 3500 
L 1159 3500 
L 1159 2956 
Q 1366 3272 1645 3428 
Q 1925 3584 2291 3584 
Q 2894 3584 3203 3211 
Q 3513 2838 3513 2113 
z
" transform="scale(0.015625)"/>
       <path id="DejaVuSans-63" d="M 3122 3366 
L 3122 2828 
Q 2878 2963 2633 3030 
Q 2388 3097 2138 3097 
Q 1578 3097 1268 2742 
Q 959 2388 959 1747 
Q 959 1106 1268 751 
Q 1578 397 2138 397 
Q 2388 397 2633 464 
Q 2878 531 3122 666 
L 3122 134 
Q 2881 22 2623 -34 
Q 2366 -91 2075 -91 
Q 1284 -91 818 406 
Q 353 903 353 1747 
Q 353 2603 823 3093 
Q 1294 3584 2113 3584 
Q 2378 3584 2631 3529 
Q 2884 3475 3122 3366 
z
" transform="scale(0.015625)"/>
       <path id="DejaVuSans-20" transform="scale(0.015625)"/>
       <path id="DejaVuSans-28" d="M 1984 4856 
Q 1566 4138 1362 3434 
Q 1159 2731 1159 2009 
Q 1159 1288 1364 580 
Q 1569 -128 1984 -844 
L 1484 -844 
Q 1016 -109 783 600 
Q 550 1309 550 2009 
Q 550 2706 781 3412 
Q 1013 4119 1484 4856 
L 1984 4856 
z
" transform="scale(0.015625)"/>
       <path id="DejaVuSans-6f" d="M 1959 3097 
Q 1497 3097 1228 2736 
Q 959 2375 959 1747 
Q 959 1119 1226 758 
Q 1494 397 1959 397 
Q 2419 397 2687 759 
Q 2956 1122 2956 1747 
Q 2956 2369 2687 2733 
Q 2419 3097 1959 3097 
z
M 1959 3584 
Q 2709 3584 3137 3096 
Q 3566 2609 3566 1747 
Q 3566 888 3137 398 
Q 2709 -91 1959 -91 
Q 1206 -91 779 398 
Q 353 888 353 1747 
Q 353 2609 779 3096 
Q 1206 3584 1959 3584 
z
" transform="scale(0.015625)"/>
       <path id="DejaVuSans-68" d="M 3513 2113 
L 3513 0 
L 2938 0 
L 2938 2094 
Q 2938 2591 2744 2837 
Q 2550 3084 2163 3084 
Q 1697 3084 1428 2787 
Q 1159 2491 1159 1978 
L 1159 0 
L 581 0 
L 581 4863 
L 1159 4863 
L 1159 2956 
Q 1366 3272 1645 3428 
Q 1925 3584 2291 3584 
Q 2894 3584 3203 3211 
Q 3513 2838 3513 2113 
z
" transform="scale(0.015625)"/>
       <path id="DejaVuSans-6d" d="M 3328 2828 
Q 3544 3216 3844 3400 
Q 4144 3584 4550 3584 
Q 5097 3584 5394 3201 
Q 5691 2819 5691 2113 
L 5691 0 
L 5113 0 
L 5113 2094 
Q 5113 2597 4934 2840 
Q 4756 3084 4391 3084 
Q 3944 3084 3684 2787 
Q 3425 2491 3425 1978 
L 3425 0 
L 2847 0 
L 2847 2094 
Q 2847 2600 2669 2842 
Q 2491 3084 2119 3084 
Q 1678 3084 1418 2786 
Q 1159 2488 1159 1978 
L 1159 0 
L 581 0 
L 581 3500 
L 1159 3500 
L 1159 2956 
Q 1356 3278 1631 3431 
Q 1906 3584 2284 3584 
Q 2666 3584 2933 3390 
Q 3200 3197 3328 2828 
z
" transform="scale(0.015625)"/>
       <path id="DejaVuSans-29" d="M 513 4856 
L 1013 4856 
Q 1481 4119 1714 3412 
Q 1947 2706 1947 2009 
Q 1947 1309 1714 600 
Q 1481 -109 1013 -844 
L 513 -844 
Q 928 -128 1133 580 
Q 1338 1288 1338 2009 
Q 1338 2731 1133 3434 
Q 928 4138 513 4856 
z
" transform="scale(0.015625)"/>
      </defs>
      <use xlink:href="#DejaVuSans-52"/>
      <use xlink:href="#DejaVuSans-65" x="64.982422"/>
      <use xlink:href="#DejaVuSans-73" x="126.505859"/>
      <use xlink:href="#DejaVuSans-69" x="178.605469"/>
      <use xlink:href="#DejaVuSans-73" x="206.388672"/>
      <use xlink:href="#DejaVuSans-74" x="258.488281"/>
      <use xlink:href="#DejaVuSans-61" x="297.697266"/>
      <use xlink:href="#DejaVuSans-6e" x="358.976562"/>
      <use xlink:href="#DejaVuSans-63" x="422.355469"/>
      <use xlink:href="#DejaVuSans-65" x="477.335938"/>
      <use xlink:href="#DejaVuSans-20" x="538.859375"/>
      <use xlink:href="#DejaVuSans-28" x="570.646484"/>
      <use xlink:href="#DejaVuSans-6f" x="609.660156"/>
      <use xlink:href="#DejaVuSans-68" x="670.841797"/>
      <use xlink:href="#DejaVuSans-6d" x="734.220703"/>
      <use xlink:href="#DejaVuSans-73" x="831.632812"/>
      <use xlink:href="#DejaVuSans-29" x="883.732422"/>
     </g>
    </g>
   </g>
   <g id="matplotlib.axis_2">
    <g id="ytick_1">
     <g id="line2d_8">
      <defs>
       <path id="mfd9119718c" d="M 0 0 
L -3.5 0 
" style="stroke: #000000; stroke-width: 0.8"/>
      </defs>
      <g>
       <use xlink:href="#mfd9119718c" x="51.176" y="216.088458" style="stroke: #000000; stroke-width: 0.8"/>
      </g>
     </g>
     <g id="text_9">
      <!-- 50 -->
      <g transform="translate(31.451 219.887677) scale(0.1 -0.1)">
       <defs>
        <path id="DejaVuSans-35" d="M 691 4666 
L 3169 4666 
L 3169 4134 
L 1269 4134 
L 1269 2991 
Q 1406 3038 1543 3061 
Q 1681 3084 1819 3084 
Q 2600 3084 3056 2656 
Q 3513 2228 3513 1497 
Q 3513 744 3044 326 
Q 2575 -91 1722 -91 
Q 1428 -91 1123 -41 
Q 819 9 494 109 
L 494 744 
Q 775 591 1075 516 
Q 1375 441 1709 441 
Q 2250 441 2565 725 
Q 2881 1009 2881 1497 
Q 2881 1984 2565 2268 
Q 2250 2553 1709 2553 
Q 1456 2553 1204 2497 
Q 953 2441 691 2322 
L 691 4666 
z
" transform="scale(0.015625)"/>
       </defs>
       <use xlink:href="#DejaVuSans-35"/>
       <use xlink:href="#DejaVuSans-30" x="63.623047"/>
      </g>
     </g>
    </g>
    <g id="ytick_2">
     <g id="line2d_9">
      <g>
       <use xlink:href="#mfd9119718c" x="51.176" y="171.154071" style="stroke: #000000; stroke-width: 0.8"/>
      </g>
     </g>
     <g id="text_10">
      <!-- 100 -->
      <g transform="translate(25.0885 174.95329) scale(0.1 -0.1)">
       <use xlink:href="#DejaVuSans-31"/>
       <use xlink:href="#DejaVuSans-30" x="63.623047"/>
       <use xlink:href="#DejaVuSans-30" x="127.246094"/>
      </g>
     </g>
    </g>
    <g id="ytick_3">
     <g id="line2d_10">
      <g>
       <use xlink:href="#mfd9119718c" x="51.176" y="126.219684" style="stroke: #000000; stroke-width: 0.8"/>
      </g>
     </g>
     <g id="text_11">
      <!-- 150 -->
      <g transform="translate(25.0885 130.018903) scale(0.1 -0.1)">
       <use xlink:href="#DejaVuSans-31"/>
       <use xlink:href="#DejaVuSans-35" x="63.623047"/>
       <use xlink:href="#DejaVuSans-30" x="127.246094"/>
      </g>
     </g>
    </g>
    <g id="ytick_4">
     <g id="line2d_11">
      <g>
       <use xlink:href="#mfd9119718c" x="51.176" y="81.285296" style="stroke: #000000; stroke-width: 0.8"/>
      </g>
     </g>
     <g id="text_12">
      <!-- 200 -->
      <g transform="translate(25.0885 85.084515) scale(0.1 -0.1)">
       <use xlink:href="#DejaVuSans-32"/>
       <use xlink:href="#DejaVuSans-30" x="63.623047"/>
       <use xlink:href="#DejaVuSans-30" x="127.246094"/>
      </g>
     </g>
    </g>
    <g id="ytick_5">
     <g id="line2d_12">
      <g>
       <use xlink:href="#mfd9119718c" x="51.176" y="36.350909" style="stroke: #000000; stroke-width: 0.8"/>
      </g>
     </g>
     <g id="text_13">
      <!-- 250 -->
      <g transform="translate(25.0885 40.150128) scale(0.1 -0.1)">
       <use xlink:href="#DejaVuSans-32"/>
       <use xlink:href="#DejaVuSans-35" x="63.623047"/>
       <use xlink:href="#DejaVuSans-30" x="127.246094"/>
      </g>
     </g>
    </g>
    <g id="text_14">
     <!-- Temperature (°C) -->
     <g transform="translate(19.008812 182.851562) rotate(-90) scale(0.1 -0.1)">
      <defs>
       <path id="DejaVuSans-54" d="M -19 4666 
L 3928 4666 
L 3928 4134 
L 2272 4134 
L 2272 0 
L 1638 0 
L 1638 4134 
L -19 4134 
L -19 4666 
z
" transform="scale(0.015625)"/>
       <path id="DejaVuSans-70" d="M 1159 525 
L 1159 -1331 
L 581 -1331 
L 581 3500 
L 1159 3500 
L 1159 2969 
Q 1341 3281 1617 3432 
Q 1894 3584 2278 3584 
Q 2916 3584 3314 3078 
Q 3713 2572 3713 1747 
Q 3713 922 3314 415 
Q 2916 -91 2278 -91 
Q 1894 -91 1617 61 
Q 1341 213 1159 525 
z
M 3116 1747 
Q 3116 2381 2855 2742 
Q 2594 3103 2138 3103 
Q 1681 3103 1420 2742 
Q 1159 2381 1159 1747 
Q 1159 1113 1420 752 
Q 1681 391 2138 391 
Q 2594 391 2855 752 
Q 3116 1113 3116 1747 
z
" transform="scale(0.015625)"/>
       <path id="DejaVuSans-72" d="M 2631 2963 
Q 2534 3019 2420 3045 
Q 2306 3072 2169 3072 
Q 1681 3072 1420 2755 
Q 1159 2438 1159 1844 
L 1159 0 
L 581 0 
L 581 3500 
L 1159 3500 
L 1159 2956 
Q 1341 3275 1631 3429 
Q 1922 3584 2338 3584 
Q 2397 3584 2469 3576 
Q 2541 3569 2628 3553 
L 2631 2963 
z
" transform="scale(0.015625)"/>
       <path id="DejaVuSans-75" d="M 544 1381 
L 544 3500 
L 1119 3500 
L 1119 1403 
Q 1119 906 1312 657 
Q 1506 409 1894 409 
Q 2359 409 2629 706 
Q 2900 1003 2900 1516 
L 2900 3500 
L 3475 3500 
L 3475 0 
L 2900 0 
L 2900 538 
Q 2691 219 2414 64 
Q 2138 -91 1772 -91 
Q 1169 -91 856 284 
Q 544 659 544 1381 
z
M 1991 3584 
L 1991 3584 
z
" transform="scale(0.015625)"/>
       <path id="DejaVuSans-b0" d="M 1600 4347 
Q 1350 4347 1178 4173 
Q 1006 4000 1006 3750 
Q 1006 3503 1178 3333 
Q 1350 3163 1600 3163 
Q 1850 3163 2022 3333 
Q 2194 3503 2194 3750 
Q 2194 3997 2020 4172 
Q 1847 4347 1600 4347 
z
M 1600 4750 
Q 1800 4750 1984 4673 
Q 2169 4597 2303 4453 
Q 2447 4313 2519 4134 
Q 2591 3956 2591 3750 
Q 2591 3338 2302 3052 
Q 2013 2766 1594 2766 
Q 1172 2766 890 3047 
Q 609 3328 609 3750 
Q 609 4169 896 4459 
Q 1184 4750 1600 4750 
z
" transform="scale(0.015625)"/>
       <path id="DejaVuSans-43" d="M 4122 4306 
L 4122 3641 
Q 3803 3938 3442 4084 
Q 3081 4231 2675 4231 
Q 1875 4231 1450 3742 
Q 1025 3253 1025 2328 
Q 1025 1406 1450 917 
Q 1875 428 2675 428 
Q 3081 428 3442 575 
Q 3803 722 4122 1019 
L 4122 359 
Q 3791 134 3420 21 
Q 3050 -91 2638 -91 
Q 1578 -91 968 557 
Q 359 1206 359 2328 
Q 359 3453 968 4101 
Q 1578 4750 2638 4750 
Q 3056 4750 3426 4639 
Q 3797 4528 4122 4306 
z
" transform="scale(0.015625)"/>
      </defs>
      <use xlink:href="#DejaVuSans-54"/>
      <use xlink:href="#DejaVuSans-65" x="44.083984"/>
      <use xlink:href="#DejaVuSans-6d" x="105.607422"/>
      <use xlink:href="#DejaVuSans-70" x="203.019531"/>
      <use xlink:href="#DejaVuSans-65" x="266.496094"/>
      <use xlink:href="#DejaVuSans-72" x="328.019531"/>
      <use xlink:href="#DejaVuSans-61" x="369.132812"/>
      <use xlink:href="#DejaVuSans-74" x="430.412109"/>
      <use xlink:href="#DejaVuSans-75" x="469.621094"/>
      <use xlink:href="#DejaVuSans-72" x="533"/>
      <use xlink:href="#DejaVuSans-65" x="571.863281"/>
      <use xlink:href="#DejaVuSans-20" x="633.386719"/>
      <use xlink:href="#DejaVuSans-28" x="665.173828"/>
      <use xlink:href="#DejaVuSans-b0" x="704.1875"/>
      <use xlink:href="#DejaVuSans-43" x="754.1875"/>
      <use xlink:href="#DejaVuSans-29" x="824.011719"/>
     </g>
    </g>
   </g>
   <g id="line2d_13">
    <path d="M 992.090111 243.049091 
L 895.425464 241.251715 
L 810.455576 239.45434 
L 735.622577 237.656964 
L 669.594071 235.859589 
L 608.492655 233.972345 
L 554.708995 232.0851 
L 507.276272 230.197856 
L 465.366642 228.310612 
L 428.269721 226.423368 
L 395.374633 224.536123 
L 366.15499 222.648879 
L 338.991678 220.671766 
L 314.913248 218.694653 
L 293.531681 216.71754 
L 274.512215 214.740427 
L 257.565454 212.763314 
L 242.440729 210.786201 
L 228.340904 208.719219 
L 215.7795 206.652237 
L 204.56997 204.585255 
L 194.550515 202.518274 
L 185.580528 200.451292 
L 177.207229 198.294441 
L 169.722496 196.137591 
L 163.021233 193.98074 
L 157.011971 191.823889 
L 151.402302 189.57717 
L 146.378496 187.330451 
L 141.701841 184.993862 
L 137.518119 182.657274 
L 133.63302 180.230817 
L 130.160402 177.80436 
L 126.942498 175.288035 
L 123.971268 172.68184 
L 121.236969 169.985777 
L 118.728562 167.199845 
L 116.434086 164.324044 
L 114.281493 161.268506 
L 112.279457 158.03323 
L 110.432224 154.618217 
L 108.740245 151.023466 
L 107.166828 147.159108 
L 105.692206 142.935276 
L 104.333635 138.351968 
L 103.08042 133.319317 
L 101.929619 127.747453 
L 100.88276 121.546508 
L 99.932164 114.536743 
L 99.079074 106.538422 
L 98.321846 97.281938 
L 97.655453 86.317948 
L 97.079068 73.017369 
L 96.594446 56.481515 
L 96.218798 36.440778 
L 96.218798 36.440778 
" clip-path="url(#pd908f1479f)" style="fill: none; stroke: #1f77b4; stroke-width: 1.5; stroke-linecap: square"/>
   </g>
   <g id="patch_3">
    <path d="M 51.176 253.384 
L 51.176 26.016 
" style="fill: none; stroke: #000000; stroke-width: 0.8; stroke-linejoin: miter; stroke-linecap: square"/>
   </g>
   <g id="patch_4">
    <path d="M 1041.84 253.384 
L 1041.84 26.016 
" style="fill: none; stroke: #000000; stroke-width: 0.8; stroke-linejoin: miter; stroke-linecap: square"/>
   </g>
   <g id="patch_5">
    <path d="M 51.176 253.384 
L 1041.84 253.384 
" style="fill: none; stroke: #000000; stroke-width: 0.8; stroke-linejoin: miter; stroke-linecap: square"/>
   </g>
   <g id="patch_6">
    <path d="M 51.176 26.016 
L 1041.84 26.016 
" style="fill: none; stroke: #000000; stroke-width: 0.8; stroke-linejoin: miter; stroke-linecap: square"/>
   </g>
   <g id="text_15">
    <!-- Resistance vs. Temperature -->
    <g transform="translate(463.7755 20.016) scale(0.12 -0.12)">
     <defs>
      <path id="DejaVuSans-76" d="M 191 3500 
L 800 3500 
L 1894 563 
L 2988 3500 
L 3597 3500 
L 2284 0 
L 1503 0 
L 191 3500 
z
" transform="scale(0.015625)"/>
      <path id="DejaVuSans-2e" d="M 684 794 
L 1344 794 
L 1344 0 
L 684 0 
L 684 794 
z
" transform="scale(0.015625)"/>
     </defs>
     <use xlink:href="#DejaVuSans-52"/>
     <use xlink:href="#DejaVuSans-65" x="64.982422"/>
     <use xlink:href="#DejaVuSans-73" x="126.505859"/>
     <use xlink:href="#DejaVuSans-69" x="178.605469"/>
     <use xlink:href="#DejaVuSans-73" x="206.388672"/>
     <use xlink:href="#DejaVuSans-74" x="258.488281"/>
     <use xlink:href="#DejaVuSans-61" x="297.697266"/>
     <use xlink:href="#DejaVuSans-6e" x="358.976562"/>
     <use xlink:href="#DejaVuSans-63" x="422.355469"/>
     <use xlink:href="#DejaVuSans-65" x="477.335938"/>
     <use xlink:href="#DejaVuSans-20" x="538.859375"/>
     <use xlink:href="#DejaVuSans-76" x="570.646484"/>
     <use xlink:href="#DejaVuSans-73" x="629.826172"/>
     <use xlink:href="#DejaVuSans-2e" x="681.925781"/>
     <use xlink:href="#DejaVuSans-20" x="713.712891"/>
     <use xlink:href="#DejaVuSans-54" x="745.5"/>
     <use xlink:href="#DejaVuSans-65" x="789.583984"/>
     <use xlink:href="#DejaVuSans-6d" x="851.107422"/>
     <use xlink:href="#DejaVuSans-70" x="948.519531"/>
     <use xlink:href="#DejaVuSans-65" x="1011.996094"/>
     <use xlink:href="#DejaVuSans-72" x="1073.519531"/>
     <use xlink:href="#DejaVuSans-61" x="1114.632812"/>
     <use xlink:href="#DejaVuSans-74" x="1175.912109"/>
     <use xlink:href="#DejaVuSans-75" x="1215.121094"/>
     <use xlink:href="#DejaVuSans-72" x="1278.5"/>
     <use xlink:href="#DejaVuSans-65" x="1317.363281"/>
    </g>
   </g>
   <g id="legend_1">
    <g id="patch_7">
     <path d="M 894.4025 63.37225 
L 1034.84 63.37225 
Q 1036.84 63.37225 1036.84 61.37225 
L 1036.84 33.016 
Q 1036.84 31.016 1034.84 31.016 
L 894.4025 31.016 
Q 892.4025 31.016 892.4025 33.016 
L 892.4025 61.37225 
Q 892.4025 63.37225 894.4025 63.37225 
z
" style="fill: #ffffff; opacity: 0.8; stroke: #cccccc; stroke-linejoin: miter"/>
    </g>
    <g id="PathCollection_2">
     <g>
      <use xlink:href="#mb5b6804c58" x="906.4025" y="39.989437" style="fill: #1f77b4; stroke: #1f77b4"/>
     </g>
    </g>
    <g id="text_16">
     <!-- Measured data points -->
     <g transform="translate(924.4025 42.614437) scale(0.1 -0.1)">
      <defs>
       <path id="DejaVuSans-4d" d="M 628 4666 
L 1569 4666 
L 2759 1491 
L 3956 4666 
L 4897 4666 
L 4897 0 
L 4281 0 
L 4281 4097 
L 3078 897 
L 2444 897 
L 1241 4097 
L 1241 0 
L 628 0 
L 628 4666 
z
" transform="scale(0.015625)"/>
       <path id="DejaVuSans-64" d="M 2906 2969 
L 2906 4863 
L 3481 4863 
L 3481 0 
L 2906 0 
L 2906 525 
Q 2725 213 2448 61 
Q 2172 -91 1784 -91 
Q 1150 -91 751 415 
Q 353 922 353 1747 
Q 353 2572 751 3078 
Q 1150 3584 1784 3584 
Q 2172 3584 2448 3432 
Q 2725 3281 2906 2969 
z
M 947 1747 
Q 947 1113 1208 752 
Q 1469 391 1925 391 
Q 2381 391 2643 752 
Q 2906 1113 2906 1747 
Q 2906 2381 2643 2742 
Q 2381 3103 1925 3103 
Q 1469 3103 1208 2742 
Q 947 2381 947 1747 
z
" transform="scale(0.015625)"/>
      </defs>
      <use xlink:href="#DejaVuSans-4d"/>
      <use xlink:href="#DejaVuSans-65" x="86.279297"/>
      <use xlink:href="#DejaVuSans-61" x="147.802734"/>
      <use xlink:href="#DejaVuSans-73" x="209.082031"/>
      <use xlink:href="#DejaVuSans-75" x="261.181641"/>
      <use xlink:href="#DejaVuSans-72" x="324.560547"/>
      <use xlink:href="#DejaVuSans-65" x="363.423828"/>
      <use xlink:href="#DejaVuSans-64" x="424.947266"/>
      <use xlink:href="#DejaVuSans-20" x="488.423828"/>
      <use xlink:href="#DejaVuSans-64" x="520.210938"/>
      <use xlink:href="#DejaVuSans-61" x="583.6875"/>
      <use xlink:href="#DejaVuSans-74" x="644.966797"/>
      <use xlink:href="#DejaVuSans-61" x="684.175781"/>
      <use xlink:href="#DejaVuSans-20" x="745.455078"/>
      <use xlink:href="#DejaVuSans-70" x="777.242188"/>
      <use xlink:href="#DejaVuSans-6f" x="840.71875"/>
      <use xlink:href="#DejaVuSans-69" x="901.900391"/>
      <use xlink:href="#DejaVuSans-6e" x="929.683594"/>
      <use xlink:href="#DejaVuSans-74" x="993.0625"/>
      <use xlink:href="#DejaVuSans-73" x="1032.271484"/>
     </g>
    </g>
    <g id="line2d_14">
     <path d="M 896.4025 53.792562 
L 906.4025 53.792562 
L 916.4025 53.792562 
" style="fill: none; stroke: #1f77b4; stroke-width: 1.5; stroke-linecap: square"/>
    </g>
    <g id="text_17">
     <!-- Fitted model -->
     <g transform="translate(924.4025 57.292562) scale(0.1 -0.1)">
      <defs>
       <path id="DejaVuSans-46" d="M 628 4666 
L 3309 4666 
L 3309 4134 
L 1259 4134 
L 1259 2759 
L 3109 2759 
L 3109 2228 
L 1259 2228 
L 1259 0 
L 628 0 
L 628 4666 
z
" transform="scale(0.015625)"/>
       <path id="DejaVuSans-6c" d="M 603 4863 
L 1178 4863 
L 1178 0 
L 603 0 
L 603 4863 
z
" transform="scale(0.015625)"/>
      </defs>
      <use xlink:href="#DejaVuSans-46"/>
      <use xlink:href="#DejaVuSans-69" x="50.269531"/>
      <use xlink:href="#DejaVuSans-74" x="78.052734"/>
      <use xlink:href="#DejaVuSans-74" x="117.261719"/>
      <use xlink:href="#DejaVuSans-65" x="156.470703"/>
      <use xlink:href="#DejaVuSans-64" x="217.994141"/>
      <use xlink:href="#DejaVuSans-20" x="281.470703"/>
      <use xlink:href="#DejaVuSans-6d" x="313.257812"/>
      <use xlink:href="#DejaVuSans-6f" x="410.669922"/>
      <use xlink:href="#DejaVuSans-64" x="471.851562"/>
      <use xlink:href="#DejaVuSans-65" x="535.328125"/>
      <use xlink:href="#DejaVuSans-6c" x="596.851562"/>
     </g>
    </g>
   </g>
  </g>
  <g id="axes_2">
   <g id="patch_8">
    <path d="M 51.176 538.504 
L 1041.84 538.504 
L 1041.84 311.136 
L 51.176 311.136 
z
" style="fill: #ffffff"/>
   </g>
   <g id="PathCollection_3">
    <g clip-path="url(#p7ea362b1e4)">
     <use xlink:href="#mb5b6804c58" x="996.809818" y="528.169091" style="fill: #1f77b4; stroke: #1f77b4"/>
     <use xlink:href="#mb5b6804c58" x="972.260654" y="519.182213" style="fill: #1f77b4; stroke: #1f77b4"/>
     <use xlink:href="#mb5b6804c58" x="936.956617" y="510.195336" style="fill: #1f77b4; stroke: #1f77b4"/>
     <use xlink:href="#mb5b6804c58" x="889.962502" y="501.208458" style="fill: #1f77b4; stroke: #1f77b4"/>
     <use xlink:href="#mb5b6804c58" x="809.534763" y="492.221581" style="fill: #1f77b4; stroke: #1f77b4"/>
     <use xlink:href="#mb5b6804c58" x="749.915363" y="483.234704" style="fill: #1f77b4; stroke: #1f77b4"/>
     <use xlink:href="#mb5b6804c58" x="641.899039" y="474.247826" style="fill: #1f77b4; stroke: #1f77b4"/>
     <use xlink:href="#mb5b6804c58" x="571.992371" y="465.260949" style="fill: #1f77b4; stroke: #1f77b4"/>
     <use xlink:href="#mb5b6804c58" x="494.837854" y="456.274071" style="fill: #1f77b4; stroke: #1f77b4"/>
     <use xlink:href="#mb5b6804c58" x="425.63259" y="447.287194" style="fill: #1f77b4; stroke: #1f77b4"/>
     <use xlink:href="#mb5b6804c58" x="355.258318" y="438.300316" style="fill: #1f77b4; stroke: #1f77b4"/>
     <use xlink:href="#mb5b6804c58" x="298.91214" y="429.313439" style="fill: #1f77b4; stroke: #1f77b4"/>
     <use xlink:href="#mb5b6804c58" x="259.399676" y="420.326561" style="fill: #1f77b4; stroke: #1f77b4"/>
     <use xlink:href="#mb5b6804c58" x="220.121012" y="411.339684" style="fill: #1f77b4; stroke: #1f77b4"/>
     <use xlink:href="#mb5b6804c58" x="193.000031" y="402.352806" style="fill: #1f77b4; stroke: #1f77b4"/>
     <use xlink:href="#mb5b6804c58" x="170.788882" y="393.365929" style="fill: #1f77b4; stroke: #1f77b4"/>
     <use xlink:href="#mb5b6804c58" x="153.721367" y="384.379051" style="fill: #1f77b4; stroke: #1f77b4"/>
     <use xlink:href="#mb5b6804c58" x="140.394678" y="375.392174" style="fill: #1f77b4; stroke: #1f77b4"/>
     <use xlink:href="#mb5b6804c58" x="128.7046" y="366.405296" style="fill: #1f77b4; stroke: #1f77b4"/>
     <use xlink:href="#mb5b6804c58" x="117.715926" y="357.418419" style="fill: #1f77b4; stroke: #1f77b4"/>
     <use xlink:href="#mb5b6804c58" x="110.234276" y="348.431542" style="fill: #1f77b4; stroke: #1f77b4"/>
     <use xlink:href="#mb5b6804c58" x="105.090641" y="339.444664" style="fill: #1f77b4; stroke: #1f77b4"/>
     <use xlink:href="#mb5b6804c58" x="99.245602" y="330.457787" style="fill: #1f77b4; stroke: #1f77b4"/>
     <use xlink:href="#mb5b6804c58" x="96.206182" y="321.470909" style="fill: #1f77b4; stroke: #1f77b4"/>
    </g>
   </g>
   <g id="matplotlib.axis_3">
    <g id="xtick_8">
     <g id="line2d_15">
      <g>
       <use xlink:href="#mb505506765" x="74.930239" y="538.504" style="stroke: #000000; stroke-width: 0.8"/>
      </g>
     </g>
     <g id="text_18">
      <!-- 0 -->
      <g transform="translate(71.748989 553.102437) scale(0.1 -0.1)">
       <use xlink:href="#DejaVuSans-30"/>
      </g>
     </g>
    </g>
    <g id="xtick_9">
     <g id="line2d_16">
      <g>
       <use xlink:href="#mb505506765" x="191.831023" y="538.504" style="stroke: #000000; stroke-width: 0.8"/>
      </g>
     </g>
     <g id="text_19">
      <!-- 500 -->
      <g transform="translate(182.287273 553.102437) scale(0.1 -0.1)">
       <use xlink:href="#DejaVuSans-35"/>
       <use xlink:href="#DejaVuSans-30" x="63.623047"/>
       <use xlink:href="#DejaVuSans-30" x="127.246094"/>
      </g>
     </g>
    </g>
    <g id="xtick_10">
     <g id="line2d_17">
      <g>
       <use xlink:href="#mb505506765" x="308.731806" y="538.504" style="stroke: #000000; stroke-width: 0.8"/>
      </g>
     </g>
     <g id="text_20">
      <!-- 1000 -->
      <g transform="translate(296.006806 553.102437) scale(0.1 -0.1)">
       <use xlink:href="#DejaVuSans-31"/>
       <use xlink:href="#DejaVuSans-30" x="63.623047"/>
       <use xlink:href="#DejaVuSans-30" x="127.246094"/>
       <use xlink:href="#DejaVuSans-30" x="190.869141"/>
      </g>
     </g>
    </g>
    <g id="xtick_11">
     <g id="line2d_18">
      <g>
       <use xlink:href="#mb505506765" x="425.63259" y="538.504" style="stroke: #000000; stroke-width: 0.8"/>
      </g>
     </g>
     <g id="text_21">
      <!-- 1500 -->
      <g transform="translate(412.90759 553.102437) scale(0.1 -0.1)">
       <use xlink:href="#DejaVuSans-31"/>
       <use xlink:href="#DejaVuSans-35" x="63.623047"/>
       <use xlink:href="#DejaVuSans-30" x="127.246094"/>
       <use xlink:href="#DejaVuSans-30" x="190.869141"/>
      </g>
     </g>
    </g>
    <g id="xtick_12">
     <g id="line2d_19">
      <g>
       <use xlink:href="#mb505506765" x="542.533373" y="538.504" style="stroke: #000000; stroke-width: 0.8"/>
      </g>
     </g>
     <g id="text_22">
      <!-- 2000 -->
      <g transform="translate(529.808373 553.102437) scale(0.1 -0.1)">
       <use xlink:href="#DejaVuSans-32"/>
       <use xlink:href="#DejaVuSans-30" x="63.623047"/>
       <use xlink:href="#DejaVuSans-30" x="127.246094"/>
       <use xlink:href="#DejaVuSans-30" x="190.869141"/>
      </g>
     </g>
    </g>
    <g id="xtick_13">
     <g id="line2d_20">
      <g>
       <use xlink:href="#mb505506765" x="659.434157" y="538.504" style="stroke: #000000; stroke-width: 0.8"/>
      </g>
     </g>
     <g id="text_23">
      <!-- 2500 -->
      <g transform="translate(646.709157 553.102437) scale(0.1 -0.1)">
       <use xlink:href="#DejaVuSans-32"/>
       <use xlink:href="#DejaVuSans-35" x="63.623047"/>
       <use xlink:href="#DejaVuSans-30" x="127.246094"/>
       <use xlink:href="#DejaVuSans-30" x="190.869141"/>
      </g>
     </g>
    </g>
    <g id="xtick_14">
     <g id="line2d_21">
      <g>
       <use xlink:href="#mb505506765" x="776.33494" y="538.504" style="stroke: #000000; stroke-width: 0.8"/>
      </g>
     </g>
     <g id="text_24">
      <!-- 3000 -->
      <g transform="translate(763.60994 553.102437) scale(0.1 -0.1)">
       <defs>
        <path id="DejaVuSans-33" d="M 2597 2516 
Q 3050 2419 3304 2112 
Q 3559 1806 3559 1356 
Q 3559 666 3084 287 
Q 2609 -91 1734 -91 
Q 1441 -91 1130 -33 
Q 819 25 488 141 
L 488 750 
Q 750 597 1062 519 
Q 1375 441 1716 441 
Q 2309 441 2620 675 
Q 2931 909 2931 1356 
Q 2931 1769 2642 2001 
Q 2353 2234 1838 2234 
L 1294 2234 
L 1294 2753 
L 1863 2753 
Q 2328 2753 2575 2939 
Q 2822 3125 2822 3475 
Q 2822 3834 2567 4026 
Q 2313 4219 1838 4219 
Q 1578 4219 1281 4162 
Q 984 4106 628 3988 
L 628 4550 
Q 988 4650 1302 4700 
Q 1616 4750 1894 4750 
Q 2613 4750 3031 4423 
Q 3450 4097 3450 3541 
Q 3450 3153 3228 2886 
Q 3006 2619 2597 2516 
z
" transform="scale(0.015625)"/>
       </defs>
       <use xlink:href="#DejaVuSans-33"/>
       <use xlink:href="#DejaVuSans-30" x="63.623047"/>
       <use xlink:href="#DejaVuSans-30" x="127.246094"/>
       <use xlink:href="#DejaVuSans-30" x="190.869141"/>
      </g>
     </g>
    </g>
    <g id="xtick_15">
     <g id="line2d_22">
      <g>
       <use xlink:href="#mb505506765" x="893.235724" y="538.504" style="stroke: #000000; stroke-width: 0.8"/>
      </g>
     </g>
     <g id="text_25">
      <!-- 3500 -->
      <g transform="translate(880.510724 553.102437) scale(0.1 -0.1)">
       <use xlink:href="#DejaVuSans-33"/>
       <use xlink:href="#DejaVuSans-35" x="63.623047"/>
       <use xlink:href="#DejaVuSans-30" x="127.246094"/>
       <use xlink:href="#DejaVuSans-30" x="190.869141"/>
      </g>
     </g>
    </g>
    <g id="xtick_16">
     <g id="line2d_23">
      <g>
       <use xlink:href="#mb505506765" x="1010.136508" y="538.504" style="stroke: #000000; stroke-width: 0.8"/>
      </g>
     </g>
     <g id="text_26">
      <!-- 4000 -->
      <g transform="translate(997.411508 553.102437) scale(0.1 -0.1)">
       <use xlink:href="#DejaVuSans-34"/>
       <use xlink:href="#DejaVuSans-30" x="63.623047"/>
       <use xlink:href="#DejaVuSans-30" x="127.246094"/>
       <use xlink:href="#DejaVuSans-30" x="190.869141"/>
      </g>
     </g>
    </g>
    <g id="text_27">
     <!-- ADC value (0-4095) -->
     <g transform="translate(497.298625 566.780562) scale(0.1 -0.1)">
      <defs>
       <path id="DejaVuSans-41" d="M 2188 4044 
L 1331 1722 
L 3047 1722 
L 2188 4044 
z
M 1831 4666 
L 2547 4666 
L 4325 0 
L 3669 0 
L 3244 1197 
L 1141 1197 
L 716 0 
L 50 0 
L 1831 4666 
z
" transform="scale(0.015625)"/>
       <path id="DejaVuSans-44" d="M 1259 4147 
L 1259 519 
L 2022 519 
Q 2988 519 3436 956 
Q 3884 1394 3884 2338 
Q 3884 3275 3436 3711 
Q 2988 4147 2022 4147 
L 1259 4147 
z
M 628 4666 
L 1925 4666 
Q 3281 4666 3915 4102 
Q 4550 3538 4550 2338 
Q 4550 1131 3912 565 
Q 3275 0 1925 0 
L 628 0 
L 628 4666 
z
" transform="scale(0.015625)"/>
       <path id="DejaVuSans-2d" d="M 313 2009 
L 1997 2009 
L 1997 1497 
L 313 1497 
L 313 2009 
z
" transform="scale(0.015625)"/>
       <path id="DejaVuSans-39" d="M 703 97 
L 703 672 
Q 941 559 1184 500 
Q 1428 441 1663 441 
Q 2288 441 2617 861 
Q 2947 1281 2994 2138 
Q 2813 1869 2534 1725 
Q 2256 1581 1919 1581 
Q 1219 1581 811 2004 
Q 403 2428 403 3163 
Q 403 3881 828 4315 
Q 1253 4750 1959 4750 
Q 2769 4750 3195 4129 
Q 3622 3509 3622 2328 
Q 3622 1225 3098 567 
Q 2575 -91 1691 -91 
Q 1453 -91 1209 -44 
Q 966 3 703 97 
z
M 1959 2075 
Q 2384 2075 2632 2365 
Q 2881 2656 2881 3163 
Q 2881 3666 2632 3958 
Q 2384 4250 1959 4250 
Q 1534 4250 1286 3958 
Q 1038 3666 1038 3163 
Q 1038 2656 1286 2365 
Q 1534 2075 1959 2075 
z
" transform="scale(0.015625)"/>
      </defs>
      <use xlink:href="#DejaVuSans-41"/>
      <use xlink:href="#DejaVuSans-44" x="68.408203"/>
      <use xlink:href="#DejaVuSans-43" x="145.410156"/>
      <use xlink:href="#DejaVuSans-20" x="215.234375"/>
      <use xlink:href="#DejaVuSans-76" x="247.021484"/>
      <use xlink:href="#DejaVuSans-61" x="306.201172"/>
      <use xlink:href="#DejaVuSans-6c" x="367.480469"/>
      <use xlink:href="#DejaVuSans-75" x="395.263672"/>
      <use xlink:href="#DejaVuSans-65" x="458.642578"/>
      <use xlink:href="#DejaVuSans-20" x="520.166016"/>
      <use xlink:href="#DejaVuSans-28" x="551.953125"/>
      <use xlink:href="#DejaVuSans-30" x="590.966797"/>
      <use xlink:href="#DejaVuSans-2d" x="654.589844"/>
      <use xlink:href="#DejaVuSans-34" x="690.673828"/>
      <use xlink:href="#DejaVuSans-30" x="754.296875"/>
      <use xlink:href="#DejaVuSans-39" x="817.919922"/>
      <use xlink:href="#DejaVuSans-35" x="881.542969"/>
      <use xlink:href="#DejaVuSans-29" x="945.166016"/>
     </g>
    </g>
   </g>
   <g id="matplotlib.axis_4">
    <g id="ytick_6">
     <g id="line2d_24">
      <g>
       <use xlink:href="#mfd9119718c" x="51.176" y="501.208458" style="stroke: #000000; stroke-width: 0.8"/>
      </g>
     </g>
     <g id="text_28">
      <!-- 50 -->
      <g transform="translate(31.451 505.007677) scale(0.1 -0.1)">
       <use xlink:href="#DejaVuSans-35"/>
       <use xlink:href="#DejaVuSans-30" x="63.623047"/>
      </g>
     </g>
    </g>
    <g id="ytick_7">
     <g id="line2d_25">
      <g>
       <use xlink:href="#mfd9119718c" x="51.176" y="456.274071" style="stroke: #000000; stroke-width: 0.8"/>
      </g>
     </g>
     <g id="text_29">
      <!-- 100 -->
      <g transform="translate(25.0885 460.07329) scale(0.1 -0.1)">
       <use xlink:href="#DejaVuSans-31"/>
       <use xlink:href="#DejaVuSans-30" x="63.623047"/>
       <use xlink:href="#DejaVuSans-30" x="127.246094"/>
      </g>
     </g>
    </g>
    <g id="ytick_8">
     <g id="line2d_26">
      <g>
       <use xlink:href="#mfd9119718c" x="51.176" y="411.339684" style="stroke: #000000; stroke-width: 0.8"/>
      </g>
     </g>
     <g id="text_30">
      <!-- 150 -->
      <g transform="translate(25.0885 415.138903) scale(0.1 -0.1)">
       <use xlink:href="#DejaVuSans-31"/>
       <use xlink:href="#DejaVuSans-35" x="63.623047"/>
       <use xlink:href="#DejaVuSans-30" x="127.246094"/>
      </g>
     </g>
    </g>
    <g id="ytick_9">
     <g id="line2d_27">
      <g>
       <use xlink:href="#mfd9119718c" x="51.176" y="366.405296" style="stroke: #000000; stroke-width: 0.8"/>
      </g>
     </g>
     <g id="text_31">
      <!-- 200 -->
      <g transform="translate(25.0885 370.204515) scale(0.1 -0.1)">
       <use xlink:href="#DejaVuSans-32"/>
       <use xlink:href="#DejaVuSans-30" x="63.623047"/>
       <use xlink:href="#DejaVuSans-30" x="127.246094"/>
      </g>
     </g>
    </g>
    <g id="ytick_10">
     <g id="line2d_28">
      <g>
       <use xlink:href="#mfd9119718c" x="51.176" y="321.470909" style="stroke: #000000; stroke-width: 0.8"/>
      </g>
     </g>
     <g id="text_32">
      <!-- 250 -->
      <g transform="translate(25.0885 325.270128) scale(0.1 -0.1)">
       <use xlink:href="#DejaVuSans-32"/>
       <use xlink:href="#DejaVuSans-35" x="63.623047"/>
       <use xlink:href="#DejaVuSans-30" x="127.246094"/>
      </g>
     </g>
    </g>
    <g id="text_33">
     <!-- Temperature (°C) -->
     <g transform="translate(19.008812 467.971563) rotate(-90) scale(0.1 -0.1)">
      <use xlink:href="#DejaVuSans-54"/>
      <use xlink:href="#DejaVuSans-65" x="44.083984"/>
      <use xlink:href="#DejaVuSans-6d" x="105.607422"/>
      <use xlink:href="#DejaVuSans-70" x="203.019531"/>
      <use xlink:href="#DejaVuSans-65" x="266.496094"/>
      <use xlink:href="#DejaVuSans-72" x="328.019531"/>
      <use xlink:href="#DejaVuSans-61" x="369.132812"/>
      <use xlink:href="#DejaVuSans-74" x="430.412109"/>
      <use xlink:href="#DejaVuSans-75" x="469.621094"/>
      <use xlink:href="#DejaVuSans-72" x="533"/>
      <use xlink:href="#DejaVuSans-65" x="571.863281"/>
      <use xlink:href="#DejaVuSans-20" x="633.386719"/>
      <use xlink:href="#DejaVuSans-28" x="665.173828"/>
      <use xlink:href="#DejaVuSans-b0" x="704.1875"/>
      <use xlink:href="#DejaVuSans-43" x="754.1875"/>
      <use xlink:href="#DejaVuSans-29" x="824.011719"/>
     </g>
    </g>
   </g>
   <g id="line2d_29">
    <path d="M 996.576017 528.169091 
L 994.705604 527.360272 
L 994.705604 527.270403 
L 979.742304 521.60867 
L 978.807098 521.339064 
L 976.702883 520.620114 
L 975.767677 520.350508 
L 974.364868 519.901164 
L 973.429661 519.631557 
L 972.026852 519.182213 
L 970.624043 518.822738 
L 969.221233 518.373394 
L 967.818424 518.013919 
L 966.415614 517.564575 
L 965.012805 517.2051 
L 964.077599 516.935494 
L 962.674789 516.576019 
L 961.739583 516.306413 
L 959.869171 515.857069 
L 958.933964 515.587462 
L 957.063552 515.138119 
L 956.128346 514.868512 
L 953.79033 514.3293 
L 952.855124 514.059693 
L 950.049505 513.430612 
L 949.3481 513.250874 
L 946.542481 512.621793 
L 945.841077 512.442055 
L 942.567855 511.723105 
L 941.86645 511.543368 
L 936.722815 510.464942 
L 936.021411 510.285205 
L 904.224398 504.263997 
L 901.418779 503.814653 
L 896.742747 503.005834 
L 893.937129 502.55649 
L 890.663907 502.017277 
L 887.156883 501.478065 
L 883.883661 500.938852 
L 879.675233 500.309771 
L 876.869614 499.860427 
L 871.959781 499.141477 
L 869.621766 498.782002 
L 863.309123 497.883314 
L 860.971108 497.523839 
L 851.852847 496.265676 
L 849.982434 495.99607 
L 832.447317 493.659481 
L 830.576904 493.389875 
L 799.013692 489.435649 
L 795.272867 488.986305 
L 785.453202 487.818011 
L 780.77717 487.278798 
L 772.360314 486.290242 
L 766.749076 485.66116 
L 759.735029 484.852342 
L 754.123792 484.22326 
L 748.512554 483.594179 
L 741.96611 482.875228 
L 736.354872 482.246147 
L 728.873222 481.437328 
L 723.261985 480.808247 
L 713.909922 479.81969 
L 709.000089 479.280477 
L 699.648026 478.291921 
L 694.738194 477.752708 
L 684.450925 476.674283 
L 680.242496 476.224939 
L 669.020021 475.056645 
L 664.811593 474.607301 
L 653.589118 473.439007 
L 649.38069 472.989663 
L 637.223008 471.7315 
L 633.01458 471.282157 
L 620.856898 470.023994 
L 616.64847 469.57465 
L 604.490789 468.316487 
L 600.28236 467.867143 
L 589.059885 466.698849 
L 584.150052 466.159636 
L 572.927577 464.991342 
L 568.017744 464.45213 
L 557.730475 463.373704 
L 552.820642 462.834492 
L 544.403786 461.935804 
L 539.493953 461.396591 
L 531.077097 460.497904 
L 525.465859 459.868822 
L 518.919415 459.149872 
L 513.308177 458.520791 
L 506.761734 457.80184 
L 500.449091 457.08289 
L 494.837854 456.453809 
L 487.823807 455.64499 
L 482.212569 455.015908 
L 473.094308 453.937483 
L 468.418277 453.39827 
L 457.195801 452.050239 
L 452.51977 451.511026 
L 383.782109 442.614017 
L 381.911697 442.344411 
L 374.89765 441.355855 
L 372.559634 440.996379 
L 365.545587 440.007823 
L 363.207571 439.648348 
L 358.297739 438.929398 
L 355.49212 438.480054 
L 350.582287 437.761104 
L 347.776668 437.31176 
L 344.269644 436.772547 
L 341.464026 436.323203 
L 337.957002 435.783991 
L 334.216177 435.154909 
L 330.709154 434.615696 
L 326.500725 433.896746 
L 323.695107 433.447402 
L 318.551472 432.548715 
L 315.745853 432.099371 
L 308.731806 430.841208 
L 306.627592 430.481733 
L 291.664292 427.695801 
L 289.560078 427.336326 
L 275.531984 424.550394 
L 274.830579 424.370656 
L 267.816532 422.932756 
L 267.115127 422.753018 
L 262.439096 421.764462 
L 261.737691 421.584724 
L 257.996866 420.775905 
L 257.295462 420.596168 
L 254.02224 419.877217 
L 253.320835 419.69748 
L 250.515216 419.068398 
L 249.813811 418.888661 
L 247.475796 418.349448 
L 246.540589 418.079842 
L 243.734971 417.45076 
L 242.799764 417.181154 
L 240.461749 416.641942 
L 239.526542 416.372335 
L 237.65613 415.922991 
L 236.720924 415.653385 
L 234.850511 415.204041 
L 233.915305 414.934435 
L 232.044892 414.485091 
L 231.109686 414.215485 
L 229.706877 413.856009 
L 228.77167 413.586403 
L 227.368861 413.226928 
L 226.433655 412.957322 
L 225.030845 412.597847 
L 223.861837 412.238372 
L 222.459028 411.878896 
L 221.29002 411.519421 
L 219.887211 411.159946 
L 218.484401 410.710602 
L 217.081592 410.351127 
L 215.678783 409.901783 
L 214.743576 409.632177 
L 213.574568 409.272702 
L 212.639362 409.003096 
L 211.470354 408.643621 
L 210.535148 408.374014 
L 209.132339 407.92467 
L 208.197132 407.655064 
L 206.560521 407.115851 
L 205.625315 406.846245 
L 203.754903 406.217164 
L 202.819696 405.947557 
L 200.481681 405.138738 
L 199.546474 404.869132 
L 196.507054 403.790707 
L 195.571848 403.5211 
L 190.194412 401.543987 
L 189.259206 401.274381 
L 176.633921 396.331598 
L 176.633921 396.24173 
L 172.659294 394.624092 
L 172.659294 394.534223 
L 169.619874 393.27606 
L 169.619874 393.186191 
L 167.281858 392.197635 
L 167.281858 392.107766 
L 165.177644 391.209078 
L 165.177644 391.119209 
L 163.307232 390.310391 
L 163.307232 390.220522 
L 161.670621 389.501572 
L 161.670621 389.411703 
L 160.267811 388.782621 
L 160.267811 388.692753 
L 158.865002 388.063671 
L 158.865002 387.973802 
L 157.695994 387.43459 
L 157.695994 387.344721 
L 156.293185 386.71564 
L 156.293185 386.625771 
L 155.357978 386.176427 
L 155.357978 386.086558 
L 154.18897 385.547345 
L 154.18897 385.457477 
L 153.019963 384.918264 
L 153.019963 384.828395 
L 152.084756 384.379051 
L 152.084756 384.289183 
L 151.14955 383.839839 
L 151.14955 383.74997 
L 150.214344 383.300626 
L 150.214344 383.210757 
L 149.512939 382.851282 
L 149.512939 382.761413 
L 148.577733 382.31207 
L 148.577733 382.222201 
L 147.876328 381.862726 
L 147.876328 381.772857 
L 146.941122 381.323513 
L 146.941122 381.233644 
L 146.239717 380.874169 
L 146.239717 380.7843 
L 145.538312 380.424825 
L 145.538312 380.334957 
L 144.836908 379.975481 
L 144.836908 379.885613 
L 144.135503 379.526138 
L 144.135503 379.436269 
L 143.434098 379.076794 
L 143.434098 378.986925 
L 142.732694 378.62745 
L 142.732694 378.537581 
L 142.031289 378.178106 
L 142.031289 378.088237 
L 141.563686 377.818631 
L 141.563686 377.728762 
L 140.862281 377.369287 
L 140.862281 377.279418 
L 140.394678 377.009812 
L 140.394678 376.919943 
L 139.693273 376.560468 
L 139.693273 376.470599 
L 139.22567 376.200993 
L 139.22567 376.111124 
L 138.524265 375.751649 
L 138.524265 375.66178 
L 138.056662 375.392174 
L 138.056662 375.302305 
L 137.589059 375.032699 
L 137.589059 374.94283 
L 137.121456 374.673224 
L 137.121456 374.583355 
L 136.420051 374.22388 
L 136.420051 374.134011 
L 135.952448 373.864405 
L 135.952448 373.774536 
L 135.484845 373.50493 
L 135.484845 373.415061 
L 135.017242 373.145455 
L 135.017242 373.055586 
L 134.549639 372.785979 
L 134.549639 372.696111 
L 134.082036 372.426504 
L 134.082036 372.336636 
L 133.614433 372.067029 
L 133.614433 371.97716 
L 133.146829 371.707554 
L 133.146829 371.617685 
L 132.679226 371.348079 
L 132.679226 371.25821 
L 132.211623 370.988604 
L 132.211623 370.808866 
L 131.74402 370.53926 
L 131.74402 370.449391 
L 131.276417 370.179785 
L 131.276417 370.089916 
L 130.808814 369.82031 
L 130.808814 369.730441 
L 130.575012 369.550704 
L 130.575012 369.460835 
L 130.107409 369.191228 
L 130.107409 369.10136 
L 129.639806 368.831753 
L 129.639806 368.741885 
L 129.406004 368.562147 
L 129.406004 368.472278 
L 128.938401 368.202672 
L 128.938401 368.112803 
L 128.470798 367.843197 
L 128.470798 367.663459 
L 128.003195 367.393853 
L 128.003195 367.303984 
L 127.535592 367.034378 
L 127.535592 366.85464 
L 127.067989 366.585034 
L 127.067989 366.495165 
L 126.834187 366.315428 
L 126.834187 366.225559 
L 126.366584 365.955953 
L 126.366584 365.866084 
L 126.132782 365.686346 
L 126.132782 365.596477 
L 125.665179 365.326871 
L 125.665179 365.147134 
L 125.197576 364.877527 
L 125.197576 364.69779 
L 124.729973 364.428183 
L 124.729973 364.338315 
L 124.496171 364.158577 
L 124.496171 364.068708 
L 124.028568 363.799102 
L 124.028568 363.619364 
L 123.560965 363.349758 
L 123.560965 363.170021 
L 123.327164 362.990283 
L 123.327164 362.900414 
L 122.85956 362.630808 
L 122.85956 362.45107 
L 122.391957 362.181464 
L 122.391957 362.001726 
L 122.158156 361.821989 
L 122.158156 361.73212 
L 121.690553 361.462514 
L 121.690553 361.282776 
L 121.456751 361.103039 
L 121.456751 361.01317 
L 120.989148 360.743564 
L 120.989148 360.563826 
L 120.755346 360.384089 
L 120.755346 360.29422 
L 120.287743 360.024613 
L 120.287743 359.844876 
L 120.053942 359.665138 
L 120.053942 359.57527 
L 119.82014 359.395532 
L 119.82014 359.305663 
L 119.586339 359.125926 
L 119.586339 359.036057 
L 119.118735 358.766451 
L 119.118735 358.586713 
L 118.884934 358.406975 
L 118.884934 358.317107 
L 118.651132 358.137369 
L 118.651132 358.0475 
L 118.417331 357.867763 
L 118.417331 357.777894 
L 118.183529 357.598157 
L 118.183529 357.508288 
L 117.949728 357.32855 
L 117.949728 357.238681 
L 117.715926 357.058944 
L 117.715926 356.969075 
L 117.482124 356.789338 
L 117.482124 356.699469 
L 117.248323 356.519731 
L 117.248323 356.429862 
L 117.014521 356.250125 
L 117.014521 356.160256 
L 116.78072 355.980519 
L 116.78072 355.89065 
L 116.546918 355.710912 
L 116.546918 355.621043 
L 116.313117 355.441306 
L 116.313117 355.351437 
L 116.079315 355.1717 
L 116.079315 355.081831 
L 115.845513 354.902093 
L 115.845513 354.812225 
L 115.611712 354.632487 
L 115.611712 354.542618 
L 115.37791 354.362881 
L 115.37791 354.273012 
L 115.144109 354.093274 
L 115.144109 354.003406 
L 114.910307 353.823668 
L 114.910307 353.64393 
L 114.676506 353.464193 
L 114.676506 353.374324 
L 114.442704 353.194587 
L 114.442704 353.104718 
L 114.208902 352.92498 
L 114.208902 352.835111 
L 113.975101 352.655374 
L 113.975101 352.475636 
L 113.741299 352.295899 
L 113.741299 352.20603 
L 113.507498 352.026292 
L 113.507498 351.936424 
L 113.273696 351.756686 
L 113.273696 351.576949 
L 113.039895 351.397211 
L 113.039895 351.307342 
L 112.806093 351.127605 
L 112.806093 351.037736 
L 112.572292 350.857998 
L 112.572292 350.678261 
L 112.33849 350.498523 
L 112.33849 350.408655 
L 112.104688 350.228917 
L 112.104688 350.049179 
L 111.870887 349.869442 
L 111.870887 349.779573 
L 111.637085 349.599836 
L 111.637085 349.420098 
L 111.403284 349.24036 
L 111.403284 349.150492 
L 111.169482 348.970754 
L 111.169482 348.791017 
L 110.935681 348.611279 
L 110.935681 348.431542 
L 110.701879 348.251804 
L 110.701879 348.161935 
L 110.468077 347.982198 
L 110.468077 347.80246 
L 110.234276 347.622723 
L 110.234276 347.442985 
L 110.000474 347.263247 
L 110.000474 347.08351 
L 109.766673 346.903772 
L 109.766673 346.813904 
L 109.532871 346.634166 
L 109.532871 346.454428 
L 109.29907 346.274691 
L 109.29907 346.094953 
L 109.065268 345.915216 
L 109.065268 345.735478 
L 108.831466 345.555741 
L 108.831466 345.376003 
L 108.597665 345.196266 
L 108.597665 345.016528 
L 108.363863 344.836791 
L 108.363863 344.657053 
L 108.130062 344.477315 
L 108.130062 344.297578 
L 107.89626 344.11784 
L 107.89626 343.938103 
L 107.662459 343.758365 
L 107.662459 343.578628 
L 107.428657 343.39889 
L 107.428657 343.219153 
L 107.194855 343.039415 
L 107.194855 342.859677 
L 106.961054 342.67994 
L 106.961054 342.500202 
L 106.727252 342.320465 
L 106.727252 342.140727 
L 106.493451 341.96099 
L 106.493451 341.691383 
L 106.259649 341.511646 
L 106.259649 341.331908 
L 106.025848 341.152171 
L 106.025848 340.972433 
L 105.792046 340.792696 
L 105.792046 340.523089 
L 105.558245 340.343352 
L 105.558245 340.163614 
L 105.324443 339.983877 
L 105.324443 339.804139 
L 105.090641 339.624402 
L 105.090641 339.354795 
L 104.85684 339.175058 
L 104.85684 338.99532 
L 104.623038 338.815583 
L 104.623038 338.545976 
L 104.389237 338.366239 
L 104.389237 338.096632 
L 104.155435 337.916895 
L 104.155435 337.737157 
L 103.921634 337.55742 
L 103.921634 337.287813 
L 103.687832 337.108076 
L 103.687832 336.83847 
L 103.45403 336.658732 
L 103.45403 336.478994 
L 103.220229 336.299257 
L 103.220229 336.029651 
L 102.986427 335.849913 
L 102.986427 335.580307 
L 102.752626 335.400569 
L 102.752626 335.130963 
L 102.518824 334.951225 
L 102.518824 334.681619 
L 102.285023 334.501881 
L 102.285023 334.232275 
L 102.051221 334.052538 
L 102.051221 333.782931 
L 101.817419 333.603194 
L 101.817419 333.333587 
L 101.583618 333.15385 
L 101.583618 332.794375 
L 101.349816 332.614637 
L 101.349816 332.345031 
L 101.116015 332.165293 
L 101.116015 331.895687 
L 100.882213 331.715949 
L 100.882213 331.356474 
L 100.648412 331.176737 
L 100.648412 330.90713 
L 100.41461 330.727393 
L 100.41461 330.367918 
L 100.180808 330.18818 
L 100.180808 329.918574 
L 99.947007 329.738836 
L 99.947007 329.379361 
L 99.713205 329.199624 
L 99.713205 328.930017 
L 99.479404 328.75028 
L 99.479404 328.390805 
L 99.245602 328.211067 
L 99.245602 327.851592 
L 99.011801 327.671855 
L 99.011801 327.312379 
L 98.777999 327.132642 
L 98.777999 326.773167 
L 98.544197 326.593429 
L 98.544197 326.233954 
L 98.310396 326.054217 
L 98.310396 325.694742 
L 98.076594 325.515004 
L 98.076594 325.155529 
L 97.842793 324.975791 
L 97.842793 324.616316 
L 97.608991 324.436579 
L 97.608991 323.987235 
L 97.37519 323.807497 
L 97.37519 323.448022 
L 97.141388 323.268285 
L 97.141388 322.818941 
L 96.907587 322.639203 
L 96.907587 322.279728 
L 96.673785 322.099991 
L 96.673785 321.650647 
L 96.439983 321.560778 
L 96.439983 321.560778 
" clip-path="url(#p7ea362b1e4)" style="fill: none; stroke: #1f77b4; stroke-width: 1.5; stroke-linecap: square"/>
   </g>
   <g id="patch_9">
    <path d="M 51.176 538.504 
L 51.176 311.136 
" style="fill: none; stroke: #000000; stroke-width: 0.8; stroke-linejoin: miter; stroke-linecap: square"/>
   </g>
   <g id="patch_10">
    <path d="M 1041.84 538.504 
L 1041.84 311.136 
" style="fill: none; stroke: #000000; stroke-width: 0.8; stroke-linejoin: miter; stroke-linecap: square"/>
   </g>
   <g id="patch_11">
    <path d="M 51.176 538.504 
L 1041.84 538.504 
" style="fill: none; stroke: #000000; stroke-width: 0.8; stroke-linejoin: miter; stroke-linecap: square"/>
   </g>
   <g id="patch_12">
    <path d="M 51.176 311.136 
L 1041.84 311.136 
" style="fill: none; stroke: #000000; stroke-width: 0.8; stroke-linejoin: miter; stroke-linecap: square"/>
   </g>
   <g id="text_34">
    <!-- ADC value (0-4095) vs. Temperature -->
    <g transform="translate(437.055812 305.136) scale(0.12 -0.12)">
     <use xlink:href="#DejaVuSans-41"/>
     <use xlink:href="#DejaVuSans-44" x="68.408203"/>
     <use xlink:href="#DejaVuSans-43" x="145.410156"/>
     <use xlink:href="#DejaVuSans-20" x="215.234375"/>
     <use xlink:href="#DejaVuSans-76" x="247.021484"/>
     <use xlink:href="#DejaVuSans-61" x="306.201172"/>
     <use xlink:href="#DejaVuSans-6c" x="367.480469"/>
     <use xlink:href="#DejaVuSans-75" x="395.263672"/>
     <use xlink:href="#DejaVuSans-65" x="458.642578"/>
     <use xlink:href="#DejaVuSans-20" x="520.166016"/>
     <use xlink:href="#DejaVuSans-28" x="551.953125"/>
     <use xlink:href="#DejaVuSans-30" x="590.966797"/>
     <use xlink:href="#DejaVuSans-2d" x="654.589844"/>
     <use xlink:href="#DejaVuSans-34" x="690.673828"/>
     <use xlink:href="#DejaVuSans-30" x="754.296875"/>
     <use xlink:href="#DejaVuSans-39" x="817.919922"/>
     <use xlink:href="#DejaVuSans-35" x="881.542969"/>
     <use xlink:href="#DejaVuSans-29" x="945.166016"/>
     <use xlink:href="#DejaVuSans-20" x="984.179688"/>
     <use xlink:href="#DejaVuSans-76" x="1015.966797"/>
     <use xlink:href="#DejaVuSans-73" x="1075.146484"/>
     <use xlink:href="#DejaVuSans-2e" x="1127.246094"/>
     <use xlink:href="#DejaVuSans-20" x="1159.033203"/>
     <use xlink:href="#DejaVuSans-54" x="1190.820312"/>
     <use xlink:href="#DejaVuSans-65" x="1234.904297"/>
     <use xlink:href="#DejaVuSans-6d" x="1296.427734"/>
     <use xlink:href="#DejaVuSans-70" x="1393.839844"/>
     <use xlink:href="#DejaVuSans-65" x="1457.316406"/>
     <use xlink:href="#DejaVuSans-72" x="1518.839844"/>
     <use xlink:href="#DejaVuSans-61" x="1559.953125"/>
     <use xlink:href="#DejaVuSans-74" x="1621.232422"/>
     <use xlink:href="#DejaVuSans-75" x="1660.441406"/>
     <use xlink:href="#DejaVuSans-72" x="1723.820312"/>
     <use xlink:href="#DejaVuSans-65" x="1762.683594"/>
    </g>
   </g>
   <g id="legend_2">
    <g id="patch_13">
     <path d="M 894.4025 348.49225 
L 1034.84 348.49225 
Q 1036.84 348.49225 1036.84 346.49225 
L 1036.84 318.136 
Q 1036.84 316.136 1034.84 316.136 
L 894.4025 316.136 
Q 892.4025 316.136 892.4025 318.136 
L 892.4025 346.49225 
Q 892.4025 348.49225 894.4025 348.49225 
z
" style="fill: #ffffff; opacity: 0.8; stroke: #cccccc; stroke-linejoin: miter"/>
    </g>
    <g id="PathCollection_4">
     <g>
      <use xlink:href="#mb5b6804c58" x="906.4025" y="325.109438" style="fill: #1f77b4; stroke: #1f77b4"/>
     </g>
    </g>
    <g id="text_35">
     <!-- Measured data points -->
     <g transform="translate(924.4025 327.734438) scale(0.1 -0.1)">
      <use xlink:href="#DejaVuSans-4d"/>
      <use xlink:href="#DejaVuSans-65" x="86.279297"/>
      <use xlink:href="#DejaVuSans-61" x="147.802734"/>
      <use xlink:href="#DejaVuSans-73" x="209.082031"/>
      <use xlink:href="#DejaVuSans-75" x="261.181641"/>
      <use xlink:href="#DejaVuSans-72" x="324.560547"/>
      <use xlink:href="#DejaVuSans-65" x="363.423828"/>
      <use xlink:href="#DejaVuSans-64" x="424.947266"/>
      <use xlink:href="#DejaVuSans-20" x="488.423828"/>
      <use xlink:href="#DejaVuSans-64" x="520.210938"/>
      <use xlink:href="#DejaVuSans-61" x="583.6875"/>
      <use xlink:href="#DejaVuSans-74" x="644.966797"/>
      <use xlink:href="#DejaVuSans-61" x="684.175781"/>
      <use xlink:href="#DejaVuSans-20" x="745.455078"/>
      <use xlink:href="#DejaVuSans-70" x="777.242188"/>
      <use xlink:href="#DejaVuSans-6f" x="840.71875"/>
      <use xlink:href="#DejaVuSans-69" x="901.900391"/>
      <use xlink:href="#DejaVuSans-6e" x="929.683594"/>
      <use xlink:href="#DejaVuSans-74" x="993.0625"/>
      <use xlink:href="#DejaVuSans-73" x="1032.271484"/>
     </g>
    </g>
    <g id="line2d_30">
     <path d="M 896.4025 338.912563 
L 906.4025 338.912563 
L 916.4025 338.912563 
" style="fill: none; stroke: #1f77b4; stroke-width: 1.5; stroke-linecap: square"/>
    </g>
    <g id="text_36">
     <!-- Fitted model -->
     <g transform="translate(924.4025 342.412563) scale(0.1 -0.1)">
      <use xlink:href="#DejaVuSans-46"/>
      <use xlink:href="#DejaVuSans-69" x="50.269531"/>
      <use xlink:href="#DejaVuSans-74" x="78.052734"/>
      <use xlink:href="#DejaVuSans-74" x="117.261719"/>
      <use xlink:href="#DejaVuSans-65" x="156.470703"/>
      <use xlink:href="#DejaVuSans-64" x="217.994141"/>
      <use xlink:href="#DejaVuSans-20" x="281.470703"/>
      <use xlink:href="#DejaVuSans-6d" x="313.257812"/>
      <use xlink:href="#DejaVuSans-6f" x="410.669922"/>
      <use xlink:href="#DejaVuSans-64" x="471.851562"/>
      <use xlink:href="#DejaVuSans-65" x="535.328125"/>
      <use xlink:href="#DejaVuSans-6c" x="596.851562"/>
     </g>
    </g>
   </g>
  </g>
 </g>
 <defs>
  <clipPath id="pd908f1479f">
   <rect x="51.176" y="26.016" width="990.664" height="227.368"/>
  </clipPath>
  <clipPath id="p7ea362b1e4">
   <rect x="51.176" y="311.136" width="990.664" height="227.368"/>
  </clipPath>
 </defs>
</svg>
