<?xml version="1.0" encoding="UTF-8" standalone="no"?>
<!-- Created with Inkscape (http://www.inkscape.org/) -->

<svg
   width="36.333786mm"
   height="8.8325911mm"
   viewBox="0 0 36.333786 8.8325911"
   version="1.1"
   id="svg5"
   sodipodi:docname="steinhart-hart-eq.svg"
   inkscape:version="1.2.1 (9c6d41e410, 2022-07-14)"
   xmlns:inkscape="http://www.inkscape.org/namespaces/inkscape"
   xmlns:sodipodi="http://sodipodi.sourceforge.net/DTD/sodipodi-0.dtd"
   xmlns="http://www.w3.org/2000/svg"
   xmlns:svg="http://www.w3.org/2000/svg"
   xmlns:ns19="http://www.iki.fi/pav/software/textext/">
  <sodipodi:namedview
     id="namedview7"
     pagecolor="#ffffff"
     bordercolor="#000000"
     borderopacity="0.25"
     inkscape:showpageshadow="2"
     inkscape:pageopacity="0.0"
     inkscape:pagecheckerboard="0"
     inkscape:deskcolor="#d1d1d1"
     inkscape:document-units="mm"
     showgrid="false"
     inkscape:zoom="3.1251122"
     inkscape:cx="88.956805"
     inkscape:cy="10.879609"
     inkscape:window-width="1844"
     inkscape:window-height="1057"
     inkscape:window-x="68"
     inkscape:window-y="263"
     inkscape:window-maximized="1"
     inkscape:current-layer="layer1" />
  <defs
     id="defs2" />
  <g
     inkscape:label="Ebene 1"
     inkscape:groupmode="layer"
     id="layer1"
     transform="translate(-86.816032,-144.253)">
    <g
       transform="matrix(0.352778,0,0,0.352778,86.8159,144.253)"
       ns19:version="1.8.2"
       ns19:texconverter="pdflatex"
       ns19:pdfconverter="inkscape"
       ns19:text="\\begin{equation*}\nT\\left(R\\right) = \\frac{1}{\\sum_{i=0}^{\\infty} a_i\\ln\\left(R\\right)^i}\n\\end{equation*}"
       ns19:preamble="F:\data\documents\inkscape\textextpreamble.tex"
       ns19:scale="1.0"
       ns19:alignment="middle center"
       ns19:stroke-to-path="0"
       ns19:jacobian_sqrt="0.352778"
       id="g1166">
      <defs
         id="id-f1527c87-8e10-4af6-bd29-cfea6233db70">
        <g
           id="id-e796ace7-9d21-4635-877e-4215635b53b2">
          <g
             id="id-61bd2b49-4adb-47d4-8ecc-563e8fa42a92" />
          <g
             id="id-d24cbbd5-948e-4825-ae34-8e31e18177bf">
            <path
               d="m 4.25,-6.046875 c 0.078125,-0.28125 0.109375,-0.34375 0.234375,-0.375 0.09375,-0.015625 0.421875,-0.015625 0.625,-0.015625 1.015625,0 1.453125,0.03125 1.453125,0.8125 0,0.15625 -0.03125,0.546875 -0.078125,0.796875 0,0.046875 -0.03125,0.15625 -0.03125,0.1875 0,0.0625 0.03125,0.140625 0.125,0.140625 0.109375,0 0.125,-0.078125 0.15625,-0.234375 L 7,-6.46875 C 7.015625,-6.515625 7.015625,-6.609375 7.015625,-6.640625 7.015625,-6.75 6.921875,-6.75 6.75,-6.75 H 1.21875 c -0.234375,0 -0.25,0.015625 -0.328125,0.203125 l -0.59375,1.75 c 0,0.015625 -0.0625,0.15625 -0.0625,0.1875 0,0.046875 0.0625,0.109375 0.125,0.109375 0.09375,0 0.109375,-0.0625 0.171875,-0.21875 C 1.0625,-6.265625 1.328125,-6.4375 2.796875,-6.4375 H 3.1875 c 0.28125,0 0.28125,0.03125 0.28125,0.125 0,0.046875 -0.03125,0.171875 -0.046875,0.203125 L 2.09375,-0.78125 C 2,-0.421875 1.96875,-0.3125 0.90625,-0.3125 c -0.359375,0 -0.421875,0 -0.421875,0.1875 C 0.484375,0 0.59375,0 0.65625,0 c 0.265625,0 0.546875,-0.015625 0.8125,-0.015625 0.28125,0 0.578125,-0.015625 0.859375,-0.015625 0.28125,0 0.546875,0.015625 0.828125,0.015625 C 3.4375,-0.015625 3.734375,0 4.015625,0 c 0.09375,0 0.21875,0 0.21875,-0.203125 0,-0.109375 -0.078125,-0.109375 -0.34375,-0.109375 -0.234375,0 -0.375,0 -0.625,-0.015625 -0.296875,-0.03125 -0.375,-0.0625 -0.375,-0.21875 0,-0.015625 0,-0.0625 0.046875,-0.203125 z m 0,0"
               id="id-c71835e6-9fc7-4a47-b35b-81a3ce8c89d0" />
          </g>
          <g
             id="id-2003a795-5649-4873-819f-07907788fdfe">
            <path
               d="m 3.734375,-6.125 c 0.0625,-0.234375 0.09375,-0.328125 0.28125,-0.359375 C 4.109375,-6.5 4.421875,-6.5 4.625,-6.5 c 0.703125,0 1.8125,0 1.8125,0.984375 0,0.34375 -0.15625,1.03125 -0.546875,1.421875 -0.265625,0.25 -0.78125,0.578125 -1.6875,0.578125 H 3.09375 Z m 1.4375,2.734375 c 1.015625,-0.21875 2.1875,-0.921875 2.1875,-1.921875 0,-0.859375 -0.890625,-1.5 -2.203125,-1.5 H 2.328125 c -0.203125,0 -0.296875,0 -0.296875,0.203125 C 2.03125,-6.5 2.125,-6.5 2.3125,-6.5 c 0.015625,0 0.203125,0 0.375,0.015625 0.1875,0.03125 0.265625,0.03125 0.265625,0.171875 0,0.03125 0,0.0625 -0.03125,0.1875 l -1.34375,5.34375 C 1.484375,-0.390625 1.46875,-0.3125 0.671875,-0.3125 0.5,-0.3125 0.40625,-0.3125 0.40625,-0.109375 0.40625,0 0.53125,0 0.546875,0 c 0.28125,0 0.984375,-0.03125 1.25,-0.03125 0.28125,0 1,0.03125 1.28125,0.03125 0.078125,0 0.1875,0 0.1875,-0.203125 0,-0.109375 -0.078125,-0.109375 -0.28125,-0.109375 -0.359375,0 -0.640625,0 -0.640625,-0.171875 0,-0.0625 0.015625,-0.109375 0.03125,-0.171875 l 0.65625,-2.640625 h 1.1875 c 0.90625,0 1.078125,0.5625 1.078125,0.90625 0,0.140625 -0.078125,0.453125 -0.140625,0.6875 C 5.09375,-1.421875 5,-1.0625 5,-0.859375 5,0.21875 6.203125,0.21875 6.328125,0.21875 c 0.84375,0 1.203125,-1 1.203125,-1.140625 0,-0.125 -0.109375,-0.125 -0.125,-0.125 -0.09375,0 -0.109375,0.0625 -0.125,0.140625 C 7.03125,-0.171875 6.59375,0 6.375,0 6.046875,0 5.96875,-0.21875 5.96875,-0.609375 c 0,-0.3125 0.0625,-0.8125 0.109375,-1.140625 0.015625,-0.140625 0.03125,-0.328125 0.03125,-0.46875 0,-0.765625 -0.671875,-1.078125 -0.9375,-1.171875 z m 0,0"
               id="id-1612b214-48ad-4d37-86f2-bb027be7ea5c" />
          </g>
          <g
             id="id-a55b41bf-e41f-4390-8d0c-bbbe87708494">
            <path
               d="M 3.71875,-3.765625 C 3.53125,-4.140625 3.25,-4.40625 2.796875,-4.40625 c -1.15625,0 -2.390625,1.46875 -2.390625,2.921875 0,0.9375 0.546875,1.59375 1.3125,1.59375 0.203125,0 0.703125,-0.046875 1.296875,-0.75 0.078125,0.421875 0.4375,0.75 0.90625,0.75 0.359375,0 0.578125,-0.234375 0.75,-0.546875 0.15625,-0.359375 0.296875,-0.96875 0.296875,-0.984375 0,-0.109375 -0.09375,-0.109375 -0.125,-0.109375 -0.09375,0 -0.109375,0.046875 -0.140625,0.1875 -0.171875,0.640625 -0.34375,1.234375 -0.75,1.234375 -0.28125,0 -0.296875,-0.265625 -0.296875,-0.453125 0,-0.21875 0.015625,-0.3125 0.125,-0.75 C 3.890625,-1.71875 3.90625,-1.828125 4,-2.203125 L 4.359375,-3.59375 c 0.0625,-0.28125 0.0625,-0.296875 0.0625,-0.34375 0,-0.171875 -0.109375,-0.265625 -0.28125,-0.265625 -0.25,0 -0.390625,0.21875 -0.421875,0.4375 z M 3.078125,-1.1875 C 3.015625,-1 3.015625,-0.984375 2.875,-0.8125 2.4375,-0.265625 2.03125,-0.109375 1.75,-0.109375 c -0.5,0 -0.640625,-0.546875 -0.640625,-0.9375 0,-0.5 0.3125,-1.71875 0.546875,-2.1875 0.3125,-0.578125 0.75,-0.953125 1.15625,-0.953125 0.640625,0 0.78125,0.8125 0.78125,0.875 0,0.0625 -0.015625,0.125 -0.03125,0.171875 z m 0,0"
               id="id-995cd4a3-4117-4995-98b2-8459ccf33b17" />
          </g>
          <g
             id="id-9ba87e77-ca60-4e89-90b9-35c81d877d0e" />
          <g
             id="id-8c69d10c-da85-42d5-bbb3-ddb65b1d218b">
            <path
               d="m 3.296875,2.390625 c 0,-0.03125 0,-0.046875 -0.171875,-0.21875 C 1.890625,0.921875 1.5625,-0.96875 1.5625,-2.5 c 0,-1.734375 0.375,-3.46875 1.609375,-4.703125 0.125,-0.125 0.125,-0.140625 0.125,-0.171875 0,-0.078125 -0.03125,-0.109375 -0.09375,-0.109375 -0.109375,0 -1,0.6875 -1.59375,1.953125 -0.5,1.09375 -0.625,2.203125 -0.625,3.03125 0,0.78125 0.109375,1.984375 0.65625,3.125 C 2.25,1.84375 3.09375,2.5 3.203125,2.5 c 0.0625,0 0.09375,-0.03125 0.09375,-0.109375 z m 0,0"
               id="id-7b79ce32-718b-485e-a5e1-b87ccfd3916c" />
          </g>
          <g
             id="id-62a4da1d-27e5-458d-bdd2-3f4a4e80d0bd">
            <path
               d="m 2.875,-2.5 c 0,-0.765625 -0.109375,-1.96875 -0.65625,-3.109375 -0.59375,-1.21875 -1.453125,-1.875 -1.546875,-1.875 -0.0625,0 -0.109375,0.046875 -0.109375,0.109375 0,0.03125 0,0.046875 0.1875,0.234375 0.984375,0.984375 1.546875,2.5625 1.546875,4.640625 0,1.71875 -0.359375,3.46875 -1.59375,4.71875 C 0.5625,2.34375 0.5625,2.359375 0.5625,2.390625 0.5625,2.453125 0.609375,2.5 0.671875,2.5 0.765625,2.5 1.671875,1.8125 2.25,0.546875 2.765625,-0.546875 2.875,-1.65625 2.875,-2.5 Z m 0,0"
               id="id-c2e06eeb-98ae-4f33-ba61-2c99db0ce266" />
          </g>
          <g
             id="id-a2837b81-8dad-4475-bea3-fd315c27ab39">
            <path
               d="m 6.84375,-3.265625 c 0.15625,0 0.34375,0 0.34375,-0.1875 C 7.1875,-3.65625 7,-3.65625 6.859375,-3.65625 h -5.96875 c -0.140625,0 -0.328125,0 -0.328125,0.203125 0,0.1875 0.1875,0.1875 0.328125,0.1875 z m 0.015625,1.9375 c 0.140625,0 0.328125,0 0.328125,-0.203125 0,-0.1875 -0.1875,-0.1875 -0.34375,-0.1875 H 0.890625 c -0.140625,0 -0.328125,0 -0.328125,0.1875 0,0.203125 0.1875,0.203125 0.328125,0.203125 z m 0,0"
               id="id-1c28ffba-667d-4768-81ae-beda67905495" />
          </g>
          <g
             id="id-1b28d818-05de-4470-8a14-c234f211821d">
            <path
               d="m 2.9375,-6.375 c 0,-0.25 0,-0.265625 -0.234375,-0.265625 C 2.078125,-6 1.203125,-6 0.890625,-6 v 0.3125 c 0.203125,0 0.78125,0 1.296875,-0.265625 v 5.171875 c 0,0.359375 -0.03125,0.46875 -0.921875,0.46875 h -0.3125 V 0 c 0.34375,-0.03125 1.203125,-0.03125 1.609375,-0.03125 0.390625,0 1.265625,0 1.609375,0.03125 v -0.3125 h -0.3125 c -0.90625,0 -0.921875,-0.109375 -0.921875,-0.46875 z m 0,0"
               id="id-f1a61415-4a09-4bd2-b589-056bd45da515" />
          </g>
          <g
             id="id-e545a477-d4b8-482e-bdd2-f7069d156082">
            <path
               d="M 1.765625,-6.921875 0.328125,-6.8125 V -6.5 c 0.703125,0 0.78125,0.0625 0.78125,0.5625 V -0.75 c 0,0.4375 -0.109375,0.4375 -0.78125,0.4375 V 0 C 0.65625,-0.015625 1.1875,-0.03125 1.4375,-0.03125 c 0.25,0 0.734375,0.015625 1.109375,0.03125 v -0.3125 c -0.671875,0 -0.78125,0 -0.78125,-0.4375 z m 0,0"
               id="id-000a66e8-982b-4c5f-bfd5-e7c3ee03d777" />
          </g>
          <g
             id="id-54521824-a2e9-4809-b2a3-0367a1d9c370">
            <path
               d="M 1.09375,-3.421875 V -0.75 c 0,0.4375 -0.109375,0.4375 -0.78125,0.4375 V 0 c 0.359375,-0.015625 0.859375,-0.03125 1.140625,-0.03125 0.25,0 0.765625,0.015625 1.109375,0.03125 v -0.3125 c -0.671875,0 -0.78125,0 -0.78125,-0.4375 V -2.59375 C 1.78125,-3.625 2.5,-4.1875 3.125,-4.1875 c 0.640625,0 0.75,0.53125 0.75,1.109375 V -0.75 c 0,0.4375 -0.109375,0.4375 -0.78125,0.4375 V 0 c 0.34375,-0.015625 0.859375,-0.03125 1.125,-0.03125 0.25,0 0.78125,0.015625 1.109375,0.03125 v -0.3125 c -0.515625,0 -0.765625,0 -0.765625,-0.296875 v -1.90625 c 0,-0.859375 0,-1.15625 -0.3125,-1.515625 -0.140625,-0.171875 -0.46875,-0.375 -1.046875,-0.375 C 2.46875,-4.40625 2,-3.984375 1.71875,-3.359375 V -4.40625 L 0.3125,-4.296875 v 0.3125 c 0.703125,0 0.78125,0.0625 0.78125,0.5625 z m 0,0"
               id="id-17525d82-85d5-4ad3-8ce4-b7151fd7be7e" />
          </g>
          <g
             id="id-6755b729-ba56-4ae7-a5fe-5edf38a436c6" />
          <g
             id="id-dafcf9cf-d76b-4060-9092-0def08f77245">
            <path
               d="m 4.203125,5.328125 -3.546875,4.375 C 0.578125,9.796875 0.5625,9.8125 0.5625,9.859375 c 0,0.109375 0.09375,0.109375 0.28125,0.109375 h 8.25 L 9.953125,7.484375 h -0.25 C 9.453125,8.234375 8.796875,8.84375 7.9375,9.125 7.78125,9.1875 7.09375,9.421875 5.625,9.421875 H 1.390625 l 3.46875,-4.28125 C 4.921875,5.046875 4.9375,5.03125 4.9375,4.984375 4.9375,4.9375 4.9375,4.9375 4.875,4.84375 L 1.640625,0.40625 h 3.9375 c 1.140625,0 3.4375,0.0625 4.125,1.921875 h 0.25 L 9.09375,0 h -8.25 C 0.5625,0 0.5625,0.015625 0.5625,0.3125 Z m 0,0"
               id="id-e2a5b4a3-159e-4f0b-b2e0-e3f330e1fe15" />
          </g>
          <g
             id="id-2cc756b6-511a-4030-80ee-9263053903ae" />
          <g
             id="id-2aa59d3f-cfc7-482d-9b36-b8a0b68f1382">
            <path
               d="m 4.03125,-1.90625 c -0.375,-0.4375 -0.484375,-0.546875 -0.75,-0.734375 -0.421875,-0.3125 -0.875,-0.4375 -1.25,-0.4375 -0.875,0 -1.5,0.75 -1.5,1.578125 0,0.8125 0.609375,1.5625 1.46875,1.5625 0.96875,0 1.65625,-0.78125 1.90625,-1.15625 0.359375,0.4375 0.484375,0.546875 0.734375,0.734375 0.4375,0.3125 0.875,0.421875 1.265625,0.421875 0.859375,0 1.484375,-0.734375 1.484375,-1.5625 0,-0.828125 -0.59375,-1.578125 -1.46875,-1.578125 -0.96875,0 -1.640625,0.796875 -1.890625,1.171875 z m 0.21875,0.25 c 0.28125,-0.453125 0.890625,-1.15625 1.734375,-1.15625 0.71875,0 1.21875,0.640625 1.21875,1.3125 0,0.65625 -0.546875,1.1875 -1.1875,1.1875 -0.65625,0 -1.09375,-0.53125 -1.765625,-1.34375 z M 3.671875,-1.359375 C 3.40625,-0.90625 2.796875,-0.1875 1.9375,-0.1875 c -0.71875,0 -1.203125,-0.640625 -1.203125,-1.3125 0,-0.671875 0.546875,-1.1875 1.1875,-1.1875 0.640625,0 1.09375,0.53125 1.75,1.328125 z m 0,0"
               id="id-6f43bd3f-d95d-42e8-9a23-fa3fee0ead3f" />
          </g>
          <g
             id="id-2c254646-afa3-4e76-9219-8e353c439c29" />
          <g
             id="id-efdf0567-7c4b-4f29-84b8-93bc37c0eb55">
            <path
               d="m 2.265625,-4.359375 c 0,-0.109375 -0.09375,-0.265625 -0.28125,-0.265625 -0.1875,0 -0.390625,0.1875 -0.390625,0.390625 0,0.109375 0.078125,0.265625 0.28125,0.265625 0.1875,0 0.390625,-0.203125 0.390625,-0.390625 z M 0.84375,-0.8125 c -0.03125,0.09375 -0.0625,0.171875 -0.0625,0.296875 0,0.328125 0.265625,0.578125 0.65625,0.578125 0.6875,0 1,-0.953125 1,-1.0625 0,-0.09375 -0.09375,-0.09375 -0.109375,-0.09375 -0.09375,0 -0.109375,0.046875 -0.140625,0.125 -0.15625,0.5625 -0.453125,0.84375 -0.734375,0.84375 -0.140625,0 -0.171875,-0.09375 -0.171875,-0.25 0,-0.15625 0.046875,-0.28125 0.109375,-0.4375 C 1.46875,-1 1.546875,-1.1875 1.609375,-1.375 1.671875,-1.546875 1.9375,-2.171875 1.953125,-2.265625 1.984375,-2.328125 2,-2.40625 2,-2.484375 2,-2.8125 1.71875,-3.078125 1.34375,-3.078125 0.640625,-3.078125 0.328125,-2.125 0.328125,-2 c 0,0.078125 0.09375,0.078125 0.125,0.078125 0.09375,0 0.09375,-0.03125 0.125,-0.109375 C 0.75,-2.625 1.0625,-2.875 1.3125,-2.875 c 0.109375,0 0.171875,0.046875 0.171875,0.234375 0,0.171875 -0.03125,0.265625 -0.203125,0.703125 z m 0,0"
               id="id-f5fb00ba-9244-4d92-b37f-feed46b2a5f0" />
          </g>
          <g
             id="id-c2e6e8cd-c734-4105-8dde-076fddc513c9" />
          <g
             id="id-a50a15f3-9eea-4748-a9c8-cf50699493a1">
            <path
               d="m 5.359375,-2.34375 c 0.09375,0 0.25,0 0.25,-0.171875 0,-0.171875 -0.15625,-0.171875 -0.25,-0.171875 H 0.75 c -0.09375,0 -0.265625,0 -0.265625,0.171875 0,0.171875 0.15625,0.171875 0.265625,0.171875 z m 0,1.53125 c 0.09375,0 0.25,0 0.25,-0.15625 0,-0.1875 -0.15625,-0.1875 -0.25,-0.1875 H 0.75 c -0.109375,0 -0.265625,0 -0.265625,0.1875 0,0.15625 0.171875,0.15625 0.265625,0.15625 z m 0,0"
               id="id-e17d40f5-0b4f-4da2-9b54-d175d225d08f" />
          </g>
          <g
             id="id-9aae5653-aac3-4582-833b-22293b2e8a3e">
            <path
               d="M 3.59375,-2.21875 C 3.59375,-2.984375 3.5,-3.546875 3.1875,-4.03125 2.96875,-4.34375 2.53125,-4.625 1.984375,-4.625 c -1.625,0 -1.625,1.90625 -1.625,2.40625 0,0.5 0,2.359375 1.625,2.359375 1.609375,0 1.609375,-1.859375 1.609375,-2.359375 z M 1.984375,-0.0625 c -0.328125,0 -0.75,-0.1875 -0.890625,-0.75 C 1,-1.21875 1,-1.796875 1,-2.3125 1,-2.828125 1,-3.359375 1.09375,-3.734375 1.25,-4.28125 1.6875,-4.4375 1.984375,-4.4375 c 0.375,0 0.734375,0.234375 0.859375,0.640625 0.109375,0.375 0.125,0.875 0.125,1.484375 0,0.515625 0,1.03125 -0.09375,1.46875 -0.140625,0.640625 -0.609375,0.78125 -0.890625,0.78125 z m 0,0"
               id="id-3e672a09-b6af-48c4-b16d-d8c400386c02" />
          </g>
        </g>
      </defs>
      <g
         fill="#000000"
         fill-opacity="1"
         id="id-2faec548-b28d-4045-9e14-674378304552"
         transform="translate(-119.877,-0.776375)">
        <g
           transform="translate(119.643,14.156)"
           id="g1092">
          <path
             d="m 4.25,-6.046875 c 0.078125,-0.28125 0.109375,-0.34375 0.234375,-0.375 0.09375,-0.015625 0.421875,-0.015625 0.625,-0.015625 1.015625,0 1.453125,0.03125 1.453125,0.8125 0,0.15625 -0.03125,0.546875 -0.078125,0.796875 0,0.046875 -0.03125,0.15625 -0.03125,0.1875 0,0.0625 0.03125,0.140625 0.125,0.140625 0.109375,0 0.125,-0.078125 0.15625,-0.234375 L 7,-6.46875 C 7.015625,-6.515625 7.015625,-6.609375 7.015625,-6.640625 7.015625,-6.75 6.921875,-6.75 6.75,-6.75 H 1.21875 c -0.234375,0 -0.25,0.015625 -0.328125,0.203125 l -0.59375,1.75 c 0,0.015625 -0.0625,0.15625 -0.0625,0.1875 0,0.046875 0.0625,0.109375 0.125,0.109375 0.09375,0 0.109375,-0.0625 0.171875,-0.21875 C 1.0625,-6.265625 1.328125,-6.4375 2.796875,-6.4375 H 3.1875 c 0.28125,0 0.28125,0.03125 0.28125,0.125 0,0.046875 -0.03125,0.171875 -0.046875,0.203125 L 2.09375,-0.78125 C 2,-0.421875 1.96875,-0.3125 0.90625,-0.3125 c -0.359375,0 -0.421875,0 -0.421875,0.1875 C 0.484375,0 0.59375,0 0.65625,0 c 0.265625,0 0.546875,-0.015625 0.8125,-0.015625 0.28125,0 0.578125,-0.015625 0.859375,-0.015625 0.28125,0 0.546875,0.015625 0.828125,0.015625 C 3.4375,-0.015625 3.734375,0 4.015625,0 c 0.09375,0 0.21875,0 0.21875,-0.203125 0,-0.109375 -0.078125,-0.109375 -0.34375,-0.109375 -0.234375,0 -0.375,0 -0.625,-0.015625 -0.296875,-0.03125 -0.375,-0.0625 -0.375,-0.21875 0,-0.015625 0,-0.0625 0.046875,-0.203125 z m 0,0"
             id="id-10f6679c-5d72-4371-b4b7-a31d370a19be" />
        </g>
      </g>
      <g
         fill="#000000"
         fill-opacity="1"
         id="id-672b8775-d73d-46aa-9cd5-e3cd487aed61"
         transform="translate(-119.877,-0.776375)">
        <g
           transform="translate(128.509,14.156)"
           id="g1096">
          <path
             d="m 3.296875,2.390625 c 0,-0.03125 0,-0.046875 -0.171875,-0.21875 C 1.890625,0.921875 1.5625,-0.96875 1.5625,-2.5 c 0,-1.734375 0.375,-3.46875 1.609375,-4.703125 0.125,-0.125 0.125,-0.140625 0.125,-0.171875 0,-0.078125 -0.03125,-0.109375 -0.09375,-0.109375 -0.109375,0 -1,0.6875 -1.59375,1.953125 -0.5,1.09375 -0.625,2.203125 -0.625,3.03125 0,0.78125 0.109375,1.984375 0.65625,3.125 C 2.25,1.84375 3.09375,2.5 3.203125,2.5 c 0.0625,0 0.09375,-0.03125 0.09375,-0.109375 z m 0,0"
             id="id-a432d451-8837-4829-b74c-aa962f7acbbb" />
        </g>
      </g>
      <g
         fill="#000000"
         fill-opacity="1"
         id="id-50534bfb-a543-4e31-bd08-ed764070a1db"
         transform="translate(-119.877,-0.776375)">
        <g
           transform="translate(132.384,14.156)"
           id="g1100">
          <path
             d="m 3.734375,-6.125 c 0.0625,-0.234375 0.09375,-0.328125 0.28125,-0.359375 C 4.109375,-6.5 4.421875,-6.5 4.625,-6.5 c 0.703125,0 1.8125,0 1.8125,0.984375 0,0.34375 -0.15625,1.03125 -0.546875,1.421875 -0.265625,0.25 -0.78125,0.578125 -1.6875,0.578125 H 3.09375 Z m 1.4375,2.734375 c 1.015625,-0.21875 2.1875,-0.921875 2.1875,-1.921875 0,-0.859375 -0.890625,-1.5 -2.203125,-1.5 H 2.328125 c -0.203125,0 -0.296875,0 -0.296875,0.203125 C 2.03125,-6.5 2.125,-6.5 2.3125,-6.5 c 0.015625,0 0.203125,0 0.375,0.015625 0.1875,0.03125 0.265625,0.03125 0.265625,0.171875 0,0.03125 0,0.0625 -0.03125,0.1875 l -1.34375,5.34375 C 1.484375,-0.390625 1.46875,-0.3125 0.671875,-0.3125 0.5,-0.3125 0.40625,-0.3125 0.40625,-0.109375 0.40625,0 0.53125,0 0.546875,0 c 0.28125,0 0.984375,-0.03125 1.25,-0.03125 0.28125,0 1,0.03125 1.28125,0.03125 0.078125,0 0.1875,0 0.1875,-0.203125 0,-0.109375 -0.078125,-0.109375 -0.28125,-0.109375 -0.359375,0 -0.640625,0 -0.640625,-0.171875 0,-0.0625 0.015625,-0.109375 0.03125,-0.171875 l 0.65625,-2.640625 h 1.1875 c 0.90625,0 1.078125,0.5625 1.078125,0.90625 0,0.140625 -0.078125,0.453125 -0.140625,0.6875 C 5.09375,-1.421875 5,-1.0625 5,-0.859375 5,0.21875 6.203125,0.21875 6.328125,0.21875 c 0.84375,0 1.203125,-1 1.203125,-1.140625 0,-0.125 -0.109375,-0.125 -0.125,-0.125 -0.09375,0 -0.109375,0.0625 -0.125,0.140625 C 7.03125,-0.171875 6.59375,0 6.375,0 6.046875,0 5.96875,-0.21875 5.96875,-0.609375 c 0,-0.3125 0.0625,-0.8125 0.109375,-1.140625 0.015625,-0.140625 0.03125,-0.328125 0.03125,-0.46875 0,-0.765625 -0.671875,-1.078125 -0.9375,-1.171875 z m 0,0"
             id="id-54fb64bd-201d-40de-8648-b6e63cd26c80" />
        </g>
      </g>
      <g
         fill="#000000"
         fill-opacity="1"
         id="id-fca8d867-86b3-40a6-b34a-43ffd145aaaa"
         transform="translate(-119.877,-0.776375)">
        <g
           transform="translate(140.025,14.156)"
           id="g1104">
          <path
             d="m 2.875,-2.5 c 0,-0.765625 -0.109375,-1.96875 -0.65625,-3.109375 -0.59375,-1.21875 -1.453125,-1.875 -1.546875,-1.875 -0.0625,0 -0.109375,0.046875 -0.109375,0.109375 0,0.03125 0,0.046875 0.1875,0.234375 0.984375,0.984375 1.546875,2.5625 1.546875,4.640625 0,1.71875 -0.359375,3.46875 -1.59375,4.71875 C 0.5625,2.34375 0.5625,2.359375 0.5625,2.390625 0.5625,2.453125 0.609375,2.5 0.671875,2.5 0.765625,2.5 1.671875,1.8125 2.25,0.546875 2.765625,-0.546875 2.875,-1.65625 2.875,-2.5 Z m 0,0"
             id="id-ddf1d673-8a4e-4ea6-834f-2c9433f4eb1f" />
        </g>
      </g>
      <g
         fill="#000000"
         fill-opacity="1"
         id="id-6a41be0f-9747-409f-a3da-a4c8f437fd13"
         transform="translate(-119.877,-0.776375)">
        <g
           transform="translate(146.669,14.156)"
           id="g1108">
          <path
             d="m 6.84375,-3.265625 c 0.15625,0 0.34375,0 0.34375,-0.1875 C 7.1875,-3.65625 7,-3.65625 6.859375,-3.65625 h -5.96875 c -0.140625,0 -0.328125,0 -0.328125,0.203125 0,0.1875 0.1875,0.1875 0.328125,0.1875 z m 0.015625,1.9375 c 0.140625,0 0.328125,0 0.328125,-0.203125 0,-0.1875 -0.1875,-0.1875 -0.34375,-0.1875 H 0.890625 c -0.140625,0 -0.328125,0 -0.328125,0.1875 0,0.203125 0.1875,0.203125 0.328125,0.203125 z m 0,0"
             id="id-5cd7261b-5b8a-4c24-93e3-328ed2ea539b" />
        </g>
      </g>
      <g
         fill="#000000"
         fill-opacity="1"
         id="id-f83fc8a0-9f32-4653-9e70-5f3846f68554"
         transform="translate(-119.877,-0.776375)">
        <g
           transform="translate(188.135,7.417)"
           id="g1112">
          <path
             d="m 2.9375,-6.375 c 0,-0.25 0,-0.265625 -0.234375,-0.265625 C 2.078125,-6 1.203125,-6 0.890625,-6 v 0.3125 c 0.203125,0 0.78125,0 1.296875,-0.265625 v 5.171875 c 0,0.359375 -0.03125,0.46875 -0.921875,0.46875 h -0.3125 V 0 c 0.34375,-0.03125 1.203125,-0.03125 1.609375,-0.03125 0.390625,0 1.265625,0 1.609375,0.03125 v -0.3125 h -0.3125 c -0.90625,0 -0.921875,-0.109375 -0.921875,-0.46875 z m 0,0"
             id="id-4ce7fb4e-7536-4dac-b2ed-d5b31ce4e66d" />
        </g>
      </g>
      <path
         fill="none"
         stroke-width="0.398"
         stroke-linecap="butt"
         stroke-linejoin="miter"
         stroke="#000000"
         stroke-opacity="1"
         stroke-miterlimit="10"
         d="M 38.501534,10.887688 H 102.99372"
         id="id-9361e1ad-ca80-474b-9072-556a7d42fd9c" />
      <g
         fill="#000000"
         fill-opacity="1"
         id="id-9311f27b-89f0-4c08-bf78-bfa12852fc4c"
         transform="translate(-119.877,-0.776375)">
        <g
           transform="translate(158.379,15.212)"
           id="g1117">
          <path
             d="m 4.203125,5.328125 -3.546875,4.375 C 0.578125,9.796875 0.5625,9.8125 0.5625,9.859375 c 0,0.109375 0.09375,0.109375 0.28125,0.109375 h 8.25 L 9.953125,7.484375 h -0.25 C 9.453125,8.234375 8.796875,8.84375 7.9375,9.125 7.78125,9.1875 7.09375,9.421875 5.625,9.421875 H 1.390625 l 3.46875,-4.28125 C 4.921875,5.046875 4.9375,5.03125 4.9375,4.984375 4.9375,4.9375 4.9375,4.9375 4.875,4.84375 L 1.640625,0.40625 h 3.9375 c 1.140625,0 3.4375,0.0625 4.125,1.921875 h 0.25 L 9.09375,0 h -8.25 C 0.5625,0 0.5625,0.015625 0.5625,0.3125 Z m 0,0"
             id="id-d4a6d08a-bb4e-44d1-9253-ceac4c4ce008" />
        </g>
      </g>
      <g
         fill="#000000"
         fill-opacity="1"
         id="id-5a43ae62-5d12-49c9-9342-0c95b24336d4"
         transform="translate(-119.877,-0.776375)">
        <g
           transform="translate(168.895,17.675)"
           id="g1121">
          <path
             d="m 4.03125,-1.90625 c -0.375,-0.4375 -0.484375,-0.546875 -0.75,-0.734375 -0.421875,-0.3125 -0.875,-0.4375 -1.25,-0.4375 -0.875,0 -1.5,0.75 -1.5,1.578125 0,0.8125 0.609375,1.5625 1.46875,1.5625 0.96875,0 1.65625,-0.78125 1.90625,-1.15625 0.359375,0.4375 0.484375,0.546875 0.734375,0.734375 0.4375,0.3125 0.875,0.421875 1.265625,0.421875 0.859375,0 1.484375,-0.734375 1.484375,-1.5625 0,-0.828125 -0.59375,-1.578125 -1.46875,-1.578125 -0.96875,0 -1.640625,0.796875 -1.890625,1.171875 z m 0.21875,0.25 c 0.28125,-0.453125 0.890625,-1.15625 1.734375,-1.15625 0.71875,0 1.21875,0.640625 1.21875,1.3125 0,0.65625 -0.546875,1.1875 -1.1875,1.1875 -0.65625,0 -1.09375,-0.53125 -1.765625,-1.34375 z M 3.671875,-1.359375 C 3.40625,-0.90625 2.796875,-0.1875 1.9375,-0.1875 c -0.71875,0 -1.203125,-0.640625 -1.203125,-1.3125 0,-0.671875 0.546875,-1.1875 1.1875,-1.1875 0.640625,0 1.09375,0.53125 1.75,1.328125 z m 0,0"
             id="id-b1bf23e7-f857-430b-899c-93f88325a617" />
        </g>
      </g>
      <g
         fill="#000000"
         fill-opacity="1"
         id="id-3692ac35-6f71-46d2-8b77-df64c4781dc6"
         transform="translate(-119.877,-0.776375)">
        <g
           transform="translate(168.895,25.673)"
           id="g1125">
          <path
             d="m 2.265625,-4.359375 c 0,-0.109375 -0.09375,-0.265625 -0.28125,-0.265625 -0.1875,0 -0.390625,0.1875 -0.390625,0.390625 0,0.109375 0.078125,0.265625 0.28125,0.265625 0.1875,0 0.390625,-0.203125 0.390625,-0.390625 z M 0.84375,-0.8125 c -0.03125,0.09375 -0.0625,0.171875 -0.0625,0.296875 0,0.328125 0.265625,0.578125 0.65625,0.578125 0.6875,0 1,-0.953125 1,-1.0625 0,-0.09375 -0.09375,-0.09375 -0.109375,-0.09375 -0.09375,0 -0.109375,0.046875 -0.140625,0.125 -0.15625,0.5625 -0.453125,0.84375 -0.734375,0.84375 -0.140625,0 -0.171875,-0.09375 -0.171875,-0.25 0,-0.15625 0.046875,-0.28125 0.109375,-0.4375 C 1.46875,-1 1.546875,-1.1875 1.609375,-1.375 1.671875,-1.546875 1.9375,-2.171875 1.953125,-2.265625 1.984375,-2.328125 2,-2.40625 2,-2.484375 2,-2.8125 1.71875,-3.078125 1.34375,-3.078125 0.640625,-3.078125 0.328125,-2.125 0.328125,-2 c 0,0.078125 0.09375,0.078125 0.125,0.078125 0.09375,0 0.09375,-0.03125 0.125,-0.109375 C 0.75,-2.625 1.0625,-2.875 1.3125,-2.875 c 0.109375,0 0.171875,0.046875 0.171875,0.234375 0,0.171875 -0.03125,0.265625 -0.203125,0.703125 z m 0,0"
             id="id-854d9264-9942-4fd8-96d2-87e42ae41b13" />
        </g>
      </g>
      <g
         fill="#000000"
         fill-opacity="1"
         id="id-2307eb2a-02fc-4e59-8dfa-6faca3acdbc6"
         transform="translate(-119.877,-0.776375)">
        <g
           transform="translate(171.713,25.673)"
           id="g1129">
          <path
             d="m 5.359375,-2.34375 c 0.09375,0 0.25,0 0.25,-0.171875 0,-0.171875 -0.15625,-0.171875 -0.25,-0.171875 H 0.75 c -0.09375,0 -0.265625,0 -0.265625,0.171875 0,0.171875 0.15625,0.171875 0.265625,0.171875 z m 0,1.53125 c 0.09375,0 0.25,0 0.25,-0.15625 0,-0.1875 -0.15625,-0.1875 -0.25,-0.1875 H 0.75 c -0.109375,0 -0.265625,0 -0.265625,0.1875 0,0.15625 0.171875,0.15625 0.265625,0.15625 z m 0,0"
             id="id-2ffde169-0ba8-4681-8456-7c6bdae62e5f" />
        </g>
        <g
           transform="translate(177.829,25.673)"
           id="g1132">
          <path
             d="M 3.59375,-2.21875 C 3.59375,-2.984375 3.5,-3.546875 3.1875,-4.03125 2.96875,-4.34375 2.53125,-4.625 1.984375,-4.625 c -1.625,0 -1.625,1.90625 -1.625,2.40625 0,0.5 0,2.359375 1.625,2.359375 1.609375,0 1.609375,-1.859375 1.609375,-2.359375 z M 1.984375,-0.0625 c -0.328125,0 -0.75,-0.1875 -0.890625,-0.75 C 1,-1.21875 1,-1.796875 1,-2.3125 1,-2.828125 1,-3.359375 1.09375,-3.734375 1.25,-4.28125 1.6875,-4.4375 1.984375,-4.4375 c 0.375,0 0.734375,0.234375 0.859375,0.640625 0.109375,0.375 0.125,0.875 0.125,1.484375 0,0.515625 0,1.03125 -0.09375,1.46875 -0.140625,0.640625 -0.609375,0.78125 -0.890625,0.78125 z m 0,0"
             id="id-54c8b0ac-e55c-4cbf-8b18-6212e7605687" />
        </g>
      </g>
      <g
         fill="#000000"
         fill-opacity="1"
         id="id-0400eaf6-7468-4562-b5c3-97c7433a925a"
         transform="translate(-119.877,-0.776375)">
        <g
           transform="translate(183.959,22.684)"
           id="g1136">
          <path
             d="M 3.71875,-3.765625 C 3.53125,-4.140625 3.25,-4.40625 2.796875,-4.40625 c -1.15625,0 -2.390625,1.46875 -2.390625,2.921875 0,0.9375 0.546875,1.59375 1.3125,1.59375 0.203125,0 0.703125,-0.046875 1.296875,-0.75 0.078125,0.421875 0.4375,0.75 0.90625,0.75 0.359375,0 0.578125,-0.234375 0.75,-0.546875 0.15625,-0.359375 0.296875,-0.96875 0.296875,-0.984375 0,-0.109375 -0.09375,-0.109375 -0.125,-0.109375 -0.09375,0 -0.109375,0.046875 -0.140625,0.1875 -0.171875,0.640625 -0.34375,1.234375 -0.75,1.234375 -0.28125,0 -0.296875,-0.265625 -0.296875,-0.453125 0,-0.21875 0.015625,-0.3125 0.125,-0.75 C 3.890625,-1.71875 3.90625,-1.828125 4,-2.203125 L 4.359375,-3.59375 c 0.0625,-0.28125 0.0625,-0.296875 0.0625,-0.34375 0,-0.171875 -0.109375,-0.265625 -0.28125,-0.265625 -0.25,0 -0.390625,0.21875 -0.421875,0.4375 z M 3.078125,-1.1875 C 3.015625,-1 3.015625,-0.984375 2.875,-0.8125 2.4375,-0.265625 2.03125,-0.109375 1.75,-0.109375 c -0.5,0 -0.640625,-0.546875 -0.640625,-0.9375 0,-0.5 0.3125,-1.71875 0.546875,-2.1875 0.3125,-0.578125 0.75,-0.953125 1.15625,-0.953125 0.640625,0 0.78125,0.8125 0.78125,0.875 0,0.0625 -0.015625,0.125 -0.03125,0.171875 z m 0,0"
             id="id-bac4c5f4-bad5-42da-8f99-81222be5ea25" />
        </g>
      </g>
      <g
         fill="#000000"
         fill-opacity="1"
         id="id-cda82206-20ee-4721-aec7-41acad8c9c31"
         transform="translate(-119.877,-0.776375)">
        <g
           transform="translate(189.225,24.178)"
           id="g1140">
          <path
             d="m 2.265625,-4.359375 c 0,-0.109375 -0.09375,-0.265625 -0.28125,-0.265625 -0.1875,0 -0.390625,0.1875 -0.390625,0.390625 0,0.109375 0.078125,0.265625 0.28125,0.265625 0.1875,0 0.390625,-0.203125 0.390625,-0.390625 z M 0.84375,-0.8125 c -0.03125,0.09375 -0.0625,0.171875 -0.0625,0.296875 0,0.328125 0.265625,0.578125 0.65625,0.578125 0.6875,0 1,-0.953125 1,-1.0625 0,-0.09375 -0.09375,-0.09375 -0.109375,-0.09375 -0.09375,0 -0.109375,0.046875 -0.140625,0.125 -0.15625,0.5625 -0.453125,0.84375 -0.734375,0.84375 -0.140625,0 -0.171875,-0.09375 -0.171875,-0.25 0,-0.15625 0.046875,-0.28125 0.109375,-0.4375 C 1.46875,-1 1.546875,-1.1875 1.609375,-1.375 1.671875,-1.546875 1.9375,-2.171875 1.953125,-2.265625 1.984375,-2.328125 2,-2.40625 2,-2.484375 2,-2.8125 1.71875,-3.078125 1.34375,-3.078125 0.640625,-3.078125 0.328125,-2.125 0.328125,-2 c 0,0.078125 0.09375,0.078125 0.125,0.078125 0.09375,0 0.09375,-0.03125 0.125,-0.109375 C 0.75,-2.625 1.0625,-2.875 1.3125,-2.875 c 0.109375,0 0.171875,0.046875 0.171875,0.234375 0,0.171875 -0.03125,0.265625 -0.203125,0.703125 z m 0,0"
             id="id-340a509a-3294-427d-b01d-5c9c00f16b99" />
        </g>
      </g>
      <g
         fill="#000000"
         fill-opacity="1"
         id="id-1afafb20-849d-47e1-b58f-c0a7b84517e8"
         transform="translate(-119.877,-0.776375)">
        <g
           transform="translate(194.203,22.684)"
           id="g1144">
          <path
             d="M 1.765625,-6.921875 0.328125,-6.8125 V -6.5 c 0.703125,0 0.78125,0.0625 0.78125,0.5625 V -0.75 c 0,0.4375 -0.109375,0.4375 -0.78125,0.4375 V 0 C 0.65625,-0.015625 1.1875,-0.03125 1.4375,-0.03125 c 0.25,0 0.734375,0.015625 1.109375,0.03125 v -0.3125 c -0.671875,0 -0.78125,0 -0.78125,-0.4375 z m 0,0"
             id="id-f0688fa5-49ea-4277-a0f7-2162d4d8f6d9" />
        </g>
        <g
           transform="translate(196.971,22.684)"
           id="g1147">
          <path
             d="M 1.09375,-3.421875 V -0.75 c 0,0.4375 -0.109375,0.4375 -0.78125,0.4375 V 0 c 0.359375,-0.015625 0.859375,-0.03125 1.140625,-0.03125 0.25,0 0.765625,0.015625 1.109375,0.03125 v -0.3125 c -0.671875,0 -0.78125,0 -0.78125,-0.4375 V -2.59375 C 1.78125,-3.625 2.5,-4.1875 3.125,-4.1875 c 0.640625,0 0.75,0.53125 0.75,1.109375 V -0.75 c 0,0.4375 -0.109375,0.4375 -0.78125,0.4375 V 0 c 0.34375,-0.015625 0.859375,-0.03125 1.125,-0.03125 0.25,0 0.78125,0.015625 1.109375,0.03125 v -0.3125 c -0.515625,0 -0.765625,0 -0.765625,-0.296875 v -1.90625 c 0,-0.859375 0,-1.15625 -0.3125,-1.515625 -0.140625,-0.171875 -0.46875,-0.375 -1.046875,-0.375 C 2.46875,-4.40625 2,-3.984375 1.71875,-3.359375 V -4.40625 L 0.3125,-4.296875 v 0.3125 c 0.703125,0 0.78125,0.0625 0.78125,0.5625 z m 0,0"
             id="id-15acaa3b-4189-4637-a6f4-2707840f0b2c" />
        </g>
      </g>
      <g
         fill="#000000"
         fill-opacity="1"
         id="id-5ce920a4-fdd4-47ce-9487-4a809a588014"
         transform="translate(-119.877,-0.776375)">
        <g
           transform="translate(204.17,22.684)"
           id="g1151">
          <path
             d="m 3.296875,2.390625 c 0,-0.03125 0,-0.046875 -0.171875,-0.21875 C 1.890625,0.921875 1.5625,-0.96875 1.5625,-2.5 c 0,-1.734375 0.375,-3.46875 1.609375,-4.703125 0.125,-0.125 0.125,-0.140625 0.125,-0.171875 0,-0.078125 -0.03125,-0.109375 -0.09375,-0.109375 -0.109375,0 -1,0.6875 -1.59375,1.953125 -0.5,1.09375 -0.625,2.203125 -0.625,3.03125 0,0.78125 0.109375,1.984375 0.65625,3.125 C 2.25,1.84375 3.09375,2.5 3.203125,2.5 c 0.0625,0 0.09375,-0.03125 0.09375,-0.109375 z m 0,0"
             id="id-dc82bef3-e0d2-4f5b-b54e-42a8051497e9" />
        </g>
      </g>
      <g
         fill="#000000"
         fill-opacity="1"
         id="id-253f27ce-5c40-43a4-90d5-989da29ec3f7"
         transform="translate(-119.877,-0.776375)">
        <g
           transform="translate(208.04,22.684)"
           id="g1155">
          <path
             d="m 3.734375,-6.125 c 0.0625,-0.234375 0.09375,-0.328125 0.28125,-0.359375 C 4.109375,-6.5 4.421875,-6.5 4.625,-6.5 c 0.703125,0 1.8125,0 1.8125,0.984375 0,0.34375 -0.15625,1.03125 -0.546875,1.421875 -0.265625,0.25 -0.78125,0.578125 -1.6875,0.578125 H 3.09375 Z m 1.4375,2.734375 c 1.015625,-0.21875 2.1875,-0.921875 2.1875,-1.921875 0,-0.859375 -0.890625,-1.5 -2.203125,-1.5 H 2.328125 c -0.203125,0 -0.296875,0 -0.296875,0.203125 C 2.03125,-6.5 2.125,-6.5 2.3125,-6.5 c 0.015625,0 0.203125,0 0.375,0.015625 0.1875,0.03125 0.265625,0.03125 0.265625,0.171875 0,0.03125 0,0.0625 -0.03125,0.1875 l -1.34375,5.34375 C 1.484375,-0.390625 1.46875,-0.3125 0.671875,-0.3125 0.5,-0.3125 0.40625,-0.3125 0.40625,-0.109375 0.40625,0 0.53125,0 0.546875,0 c 0.28125,0 0.984375,-0.03125 1.25,-0.03125 0.28125,0 1,0.03125 1.28125,0.03125 0.078125,0 0.1875,0 0.1875,-0.203125 0,-0.109375 -0.078125,-0.109375 -0.28125,-0.109375 -0.359375,0 -0.640625,0 -0.640625,-0.171875 0,-0.0625 0.015625,-0.109375 0.03125,-0.171875 l 0.65625,-2.640625 h 1.1875 c 0.90625,0 1.078125,0.5625 1.078125,0.90625 0,0.140625 -0.078125,0.453125 -0.140625,0.6875 C 5.09375,-1.421875 5,-1.0625 5,-0.859375 5,0.21875 6.203125,0.21875 6.328125,0.21875 c 0.84375,0 1.203125,-1 1.203125,-1.140625 0,-0.125 -0.109375,-0.125 -0.125,-0.125 -0.09375,0 -0.109375,0.0625 -0.125,0.140625 C 7.03125,-0.171875 6.59375,0 6.375,0 6.046875,0 5.96875,-0.21875 5.96875,-0.609375 c 0,-0.3125 0.0625,-0.8125 0.109375,-1.140625 0.015625,-0.140625 0.03125,-0.328125 0.03125,-0.46875 0,-0.765625 -0.671875,-1.078125 -0.9375,-1.171875 z m 0,0"
             id="id-c9f9c1e7-059e-4df8-88b9-d602b47f013d" />
        </g>
      </g>
      <g
         fill="#000000"
         fill-opacity="1"
         id="id-be0d1f8b-45ea-48f1-a1b4-54f7c9b317be"
         transform="translate(-119.877,-0.776375)">
        <g
           transform="translate(215.681,22.684)"
           id="g1159">
          <path
             d="m 2.875,-2.5 c 0,-0.765625 -0.109375,-1.96875 -0.65625,-3.109375 -0.59375,-1.21875 -1.453125,-1.875 -1.546875,-1.875 -0.0625,0 -0.109375,0.046875 -0.109375,0.109375 0,0.03125 0,0.046875 0.1875,0.234375 0.984375,0.984375 1.546875,2.5625 1.546875,4.640625 0,1.71875 -0.359375,3.46875 -1.59375,4.71875 C 0.5625,2.34375 0.5625,2.359375 0.5625,2.390625 0.5625,2.453125 0.609375,2.5 0.671875,2.5 0.765625,2.5 1.671875,1.8125 2.25,0.546875 2.765625,-0.546875 2.875,-1.65625 2.875,-2.5 Z m 0,0"
             id="id-490c6940-b1e6-431f-bac5-e97f587e02b3" />
        </g>
      </g>
      <g
         fill="#000000"
         fill-opacity="1"
         id="id-b4bd1a59-c352-430a-8e58-7f2a115a3120"
         transform="translate(-119.877,-0.776375)">
        <g
           transform="translate(219.555,17.675)"
           id="g1163">
          <path
             d="m 2.265625,-4.359375 c 0,-0.109375 -0.09375,-0.265625 -0.28125,-0.265625 -0.1875,0 -0.390625,0.1875 -0.390625,0.390625 0,0.109375 0.078125,0.265625 0.28125,0.265625 0.1875,0 0.390625,-0.203125 0.390625,-0.390625 z M 0.84375,-0.8125 c -0.03125,0.09375 -0.0625,0.171875 -0.0625,0.296875 0,0.328125 0.265625,0.578125 0.65625,0.578125 0.6875,0 1,-0.953125 1,-1.0625 0,-0.09375 -0.09375,-0.09375 -0.109375,-0.09375 -0.09375,0 -0.109375,0.046875 -0.140625,0.125 -0.15625,0.5625 -0.453125,0.84375 -0.734375,0.84375 -0.140625,0 -0.171875,-0.09375 -0.171875,-0.25 0,-0.15625 0.046875,-0.28125 0.109375,-0.4375 C 1.46875,-1 1.546875,-1.1875 1.609375,-1.375 1.671875,-1.546875 1.9375,-2.171875 1.953125,-2.265625 1.984375,-2.328125 2,-2.40625 2,-2.484375 2,-2.8125 1.71875,-3.078125 1.34375,-3.078125 0.640625,-3.078125 0.328125,-2.125 0.328125,-2 c 0,0.078125 0.09375,0.078125 0.125,0.078125 0.09375,0 0.09375,-0.03125 0.125,-0.109375 C 0.75,-2.625 1.0625,-2.875 1.3125,-2.875 c 0.109375,0 0.171875,0.046875 0.171875,0.234375 0,0.171875 -0.03125,0.265625 -0.203125,0.703125 z m 0,0"
             id="id-7efbf580-97b0-40cc-bd8f-7a8387a373f1" />
        </g>
      </g>
    </g>
  </g>
</svg>
